<?xml version="1.0" encoding="UTF-8"?>
<svg width="1240px" height="1240px" viewBox="0 0 1240 1240" version="1.1" xmlns="http://www.w3.org/2000/svg" xmlns:xlink="http://www.w3.org/1999/xlink">
    <!-- Generator: Sketch 55.2 (78181) - https://sketchapp.com -->
    <title>alertCircle</title>
    <desc>Created with Sketch.</desc>
    <g id="alertCircle" stroke="none" stroke-width="1" fill="none" fill-rule="evenodd">
        <g id="Group" transform="translate(270.000000, 270.000000)">
            <path d="M324.856806,375.556318 L316,246.5 L314.889996,216.973881 C314.15064,197.307019 329.494416,180.764511 349.161278,180.025155 C349.607322,180.008387 350.053641,180 350.5,180 C370.180755,180 386.13516,195.954404 386.13516,215.63516 C386.13516,216.081518 386.126773,216.527838 386.110004,216.973881 L385,246.5 L376.143194,375.556318 C375.218032,389.037252 364.012642,399.5 350.5,399.5 C336.987358,399.5 325.781968,389.037252 324.856806,375.556318 Z M350.5,521 C337.83327,521 327.250042,516.583377 318.75,507.75 C310.249958,498.916623 306,488.000065 306,475 C306,461.6666 310.249958,450.583377 318.75,441.75 C327.250042,432.916623 337.83327,428.5 350.5,428.5 C363.16673,428.5 373.749957,432.916623 382.25,441.75 C390.750043,450.583377 395,461.6666 395,475 C395,488.000065 390.750043,498.916623 382.25,507.75 C373.749957,516.583377 363.16673,521 350.5,521 Z" id="!" fill="#979797" fill-rule="nonzero"></path>
            <circle id="Oval" stroke="#979797" stroke-width="50" cx="350" cy="350" r="350"></circle>
        </g>
    </g>
</svg>