<?xml version="1.0" encoding="UTF-8"?>
<svg width="1240px" height="1240px" viewBox="0 0 1240 1240" version="1.1" xmlns="http://www.w3.org/2000/svg" xmlns:xlink="http://www.w3.org/1999/xlink">
    <!-- Generator: Sketch 55.2 (78181) - https://sketchapp.com -->
    <title>alertTriangle</title>
    <desc>Created with Sketch.</desc>
    <g id="alertTriangle" stroke="none" stroke-width="1" fill="none" fill-rule="evenodd">
        <g id="Group" transform="translate(224.000000, 302.000000)">
            <path d="M429.970767,54.644895 L754.004885,575.881596 C765.668258,594.643132 759.914059,619.307394 741.152523,630.970767 C734.813471,634.911527 727.498244,637 720.034118,637 L71.9658816,637 C49.8744916,637 31.9658816,619.09139 31.9658816,597 C31.9658816,589.535875 34.0543544,582.220647 37.9951149,575.881596 L362.029233,54.644895 C373.692606,35.8833586 398.356868,30.12916 417.118404,41.7925327 C422.332012,45.0336449 426.729655,49.4312877 429.970767,54.644895 Z" id="Triangle" stroke="#979797" stroke-width="50" stroke-linejoin="round"></path>
            <path d="M370.856806,406.556318 L362,277.5 L360.889996,247.973881 C360.15064,228.307019 375.494416,211.764511 395.161278,211.025155 C395.607322,211.008387 396.053641,211 396.5,211 C416.180755,211 432.13516,226.954404 432.13516,246.63516 C432.13516,247.081518 432.126773,247.527838 432.110004,247.973881 L431,277.5 L422.143194,406.556318 C421.218032,420.037252 410.012642,430.5 396.5,430.5 C382.987358,430.5 371.781968,420.037252 370.856806,406.556318 Z M396.5,552 C383.83327,552 373.250042,547.583377 364.75,538.75 C356.249958,529.916623 352,519.000065 352,506 C352,492.6666 356.249958,481.583377 364.75,472.75 C373.250042,463.916623 383.83327,459.5 396.5,459.5 C409.16673,459.5 419.749957,463.916623 428.25,472.75 C436.750043,481.583377 441,492.6666 441,506 C441,519.000065 436.750043,529.916623 428.25,538.75 C419.749957,547.583377 409.16673,552 396.5,552 Z" id="!" fill="#979797" fill-rule="nonzero"></path>
        </g>
    </g>
</svg>