<?xml version="1.0" encoding="UTF-8"?>
<svg width="1240px" height="1240px" viewBox="0 0 1240 1240" version="1.1" xmlns="http://www.w3.org/2000/svg" xmlns:xlink="http://www.w3.org/1999/xlink">
    <!-- Generator: Sketch 55.2 (78181) - https://sketchapp.com -->
    <title>atSign</title>
    <desc>Created with Sketch.</desc>
    <g id="atSign" stroke="none" stroke-width="1" fill="none" fill-rule="evenodd">
        <path d="M603.6,940.8 C564.133136,940.8 527.333504,934.666728 493.2,922.4 C459.066496,910.133272 429.33346,891.866788 404,867.6 C378.66654,843.333212 358.66674,813.333512 344,777.6 C329.33326,741.866488 322,700.800232 322,654.4 C322,601.0664 330.933244,552.533552 348.8,508.8 C366.666756,465.066448 390.93318,427.733488 421.6,396.8 C452.26682,365.866512 487.733132,342.000084 528,325.2 C568.266868,308.399916 610.799776,300 655.6,300 C696.133536,300 732.533172,306.399936 764.8,319.2 C797.066828,332.000064 824.53322,349.999884 847.2,373.2 C869.86678,396.400116 887.333272,424.266504 899.6,456.8 C911.866728,489.333496 918,525.333136 918,564.8 C918,600.000176 913.066716,630.799868 903.2,657.2 C893.333284,683.600132 880.666744,705.733244 865.2,723.6 C849.733256,741.466756 832.533428,754.933288 813.6,764 C794.666572,773.066712 776.133424,777.6 758,777.6 C736.133224,777.6 717.600076,772.533384 702.4,762.4 C687.199924,752.266616 678.26668,737.066768 675.6,716.8 L674,716.8 C660.6666,732.266744 645.466752,745.199948 628.4,755.6 C611.333248,766.000052 594.000088,771.2 576.4,771.2 C549.199864,771.2 526.400092,761.600096 508,742.4 C489.599908,723.199904 480.4,695.200184 480.4,658.4 C480.4,637.06656 483.999964,615.333444 491.2,593.2 C498.400036,571.066556 508.6666,551.066756 522,533.2 C535.3334,515.333244 551.466572,500.800056 570.4,489.6 C589.333428,478.399944 610.533216,472.8 634,472.8 C647.866736,472.8 660.13328,475.866636 670.8,482 C681.46672,488.133364 690.533296,497.8666 698,511.2 L699.6,511.2 L708.4,479.2 L752.4,479.2 L721.2,639.2 C705.19992,701.600312 719.599776,732.8 764.4,732.8 C777.200064,732.8 789.866604,729.066704 802.4,721.6 C814.933396,714.133296 826.399948,703.333404 836.8,689.2 C847.200052,675.066596 855.599968,657.733436 862,637.2 C868.400032,616.666564 871.6,593.333464 871.6,567.2 C871.6,535.19984 866.93338,505.466804 857.6,478 C848.26662,450.533196 834.26676,426.933432 815.6,407.2 C796.93324,387.466568 773.733472,372.000056 746,360.8 C718.266528,349.599944 686.266848,344 650,344 C614.266488,344 579.600168,351.33326 546,366 C512.399832,380.66674 482.533464,401.3332 456.4,428 C430.266536,454.6668 409.333412,486.933144 393.6,524.8 C377.866588,562.666856 370,605.066432 370,652 C370,690.933528 375.99994,725.599848 388,756 C400.00006,786.400152 416.66656,811.999896 438,832.8 C459.33344,853.600104 484.533188,869.466612 513.6,880.4 C542.666812,891.333388 574.266496,896.8 608.4,896.8 C632.933456,896.8 656.133224,893.4667 678,886.8 C699.866776,880.1333 719.866576,871.46672 738,860.8 L755.6,900 C710.26644,927.200136 659.60028,940.8 603.6,940.8 Z M589.2,726.4 C600.400056,726.4 611.99994,722.666704 624,715.2 C636.00006,707.733296 648.933264,695.733416 662.8,679.2 L686,552 C678.533296,539.733272 670.80004,531.066692 662.8,526 C654.79996,520.933308 645.46672,518.4 634.8,518.4 C618.79992,518.4 604.533396,522.666624 592,531.2 C579.466604,539.733376 568.800044,550.6666 560,564 C551.199956,577.3334 544.533356,591.99992 540,608 C535.466644,624.00008 533.2,639.466592 533.2,654.4 C533.2,680.000128 538.53328,698.399944 549.2,709.6 C559.86672,720.800056 573.19992,726.4 589.2,726.4 Z" id="@" fill="#979797" fill-rule="nonzero"></path>
    </g>
</svg>