<?xml version="1.0" encoding="UTF-8"?>
<svg width="1240px" height="1240px" viewBox="0 0 1240 1240" version="1.1" xmlns="http://www.w3.org/2000/svg" xmlns:xlink="http://www.w3.org/1999/xlink">
    <!-- Generator: Sketch 55.2 (78181) - https://sketchapp.com -->
    <title>bitcoin</title>
    <desc>Created with Sketch.</desc>
    <g id="bitcoin" stroke="none" stroke-width="1" fill="none" fill-rule="evenodd">
        <path d="M514.015625,809.421875 L579.25,809.421875 C679.640625,809.421875 721.828125,784.03125 721.828125,728.5625 C721.828125,673.09375 681.984375,641.453125 612.84375,641.453125 L514.015625,641.453125 L514.015625,809.421875 Z M514.015625,585.203125 L566.359375,585.203125 C654.640625,585.203125 694.484375,561.375 694.484375,507.078125 C694.484375,459.421875 660.5,431.6875 605.03125,431.6875 L514.015625,431.6875 L514.015625,585.203125 Z M679.25,604.34375 L679.25,607.078125 C749.5625,616.0625 791.75,660.984375 791.75,728.171875 C791.75,802.78125 739.796875,851.609375 652.6875,863.328125 L652.6875,928.71875 C652.6875,934.241597 648.210347,938.71875 642.6875,938.71875 L616.59375,938.71875 C611.070903,938.71875 606.59375,934.241597 606.59375,928.71875 L606.59375,866.0625 L556.984375,866.0625 L556.984375,928.71875 C556.984375,934.241597 552.507222,938.71875 546.984375,938.71875 L520.5,938.71875 C514.977153,938.71875 510.5,934.241597 510.5,928.71875 L510.5,866.0625 L448,866.0625 L448,375.046875 L510.5,375.046875 L510.5,312 C510.5,306.477153 514.977153,302 520.5,302 L546.984375,302 C552.507222,302 556.984375,306.477153 556.984375,312 L556.984375,375.046875 L606.59375,375.046875 L606.59375,312 C606.59375,306.477153 611.070903,302 616.59375,302 L642.6875,302 C648.210347,302 652.6875,306.477153 652.6875,312 L652.6875,377.78125 C720.265625,388.328125 762.0625,431.296875 762.0625,495.359375 C762.0625,551.21875 733.15625,588.71875 679.25,604.34375 Z" id="₿" fill="#979797" fill-rule="nonzero"></path>
    </g>
</svg>