<?xml version="1.0" encoding="UTF-8"?>
<svg width="1240px" height="1240px" viewBox="0 0 1240 1240" version="1.1" xmlns="http://www.w3.org/2000/svg" xmlns:xlink="http://www.w3.org/1999/xlink">
    <!-- Generator: Sketch 55.2 (78181) - https://sketchapp.com -->
    <title>bold</title>
    <desc>Created with Sketch.</desc>
    <g id="bold" stroke="none" stroke-width="1" fill="none" fill-rule="evenodd">
        <path d="M437,882.8 L437,358 L593,358 C619.6668,358 644.066556,360.399976 666.2,365.2 C688.333444,370.000024 707.266588,377.466616 723,387.6 C738.733412,397.733384 750.999956,410.933252 759.8,427.2 C768.600044,443.466748 773,463.066552 773,486 C773,512.133464 766.466732,535.733228 753.4,556.8 C740.333268,577.866772 721.266792,592.39996 696.2,600.4 L696.2,603.6 C728.20016,609.466696 754.066568,622.799896 773.8,643.6 C793.533432,664.400104 803.4,692.933152 803.4,729.2 C803.4,754.800128 798.600048,777.199904 789,796.4 C779.399952,815.600096 765.800088,831.599936 748.2,844.4 C730.599912,857.200064 709.533456,866.799968 685,873.2 C660.466544,879.600032 633.53348,882.8 604.2,882.8 L437,882.8 Z M503.4,581.2 L581,581.2 C625.800224,581.2 658.066568,573.466744 677.8,558 C697.533432,542.533256 707.4,521.4668 707.4,494.8 C707.4,464.399848 697.133436,442.800064 676.6,430 C656.066564,417.199936 625.266872,410.8 584.2,410.8 L503.4,410.8 L503.4,581.2 Z M503.4,830 L594.6,830 C639.93356,830 675.133208,821.600084 700.2,804.8 C725.266792,787.999916 737.8,762.000176 737.8,726.8 C737.8,694.266504 725.533456,670.400076 701,655.2 C676.466544,639.999924 641.000232,632.4 594.6,632.4 L503.4,632.4 L503.4,830 Z" id="B" fill="#979797" fill-rule="nonzero"></path>
    </g>
</svg>