<?xml version="1.0" encoding="UTF-8"?>
<svg width="1240px" height="1240px" viewBox="0 0 1240 1240" version="1.1" xmlns="http://www.w3.org/2000/svg" xmlns:xlink="http://www.w3.org/1999/xlink">
    <!-- Generator: Sketch 55.2 (78181) - https://sketchapp.com -->
    <title>book</title>
    <desc>Created with Sketch.</desc>
    <g id="book" stroke="none" stroke-width="1" fill="none" fill-rule="evenodd">
        <g id="Group" transform="translate(278.000000, 323.000000)" stroke="#979797" stroke-width="50">
            <path d="M335,536.469526 L335,80.8638075 L296.757551,45.1708549 C282.869749,32.2089064 264.580607,25 245.583682,25 L30,25 C27.2385763,25 25,27.2385763 25,30 L25,494 C25,496.761424 27.2385763,499 30,499 L245.583682,499 C277.245223,499 307.727127,511.014844 330.873463,532.618091 L335,536.469526 Z" id="Rectangle"></path>
            <path d="M659,536.469526 L659,80.8638075 L620.757551,45.1708549 C606.869749,32.2089064 588.580607,25 569.583682,25 L354,25 C351.238576,25 349,27.2385763 349,30 L349,494 C349,496.761424 351.238576,499 354,499 L569.583682,499 C601.245223,499 631.727127,511.014844 654.873463,532.618091 L659,536.469526 Z" id="Rectangle" transform="translate(504.000000, 297.000000) scale(-1, 1) translate(-504.000000, -297.000000) "></path>
        </g>
    </g>
</svg>