<?xml version="1.0" encoding="UTF-8"?>
<svg width="1240px" height="1240px" viewBox="0 0 1240 1240" version="1.1" xmlns="http://www.w3.org/2000/svg" xmlns:xlink="http://www.w3.org/1999/xlink">
    <!-- Generator: Sketch 55.2 (78181) - https://sketchapp.com -->
    <title>cloudOff</title>
    <desc>Created with Sketch.</desc>
    <g id="cloudOff" stroke="none" stroke-width="1" fill="none" fill-rule="evenodd">
        <g id="Group" transform="translate(217.000000, 270.000000)" stroke="#979797" stroke-width="50">
            <g id="CloudOutlined" transform="translate(0.000000, 75.000000)">
                <path d="M166.25314,548.665684 C73.541466,543.331894 0,466.266389 0,371.980198 C0,298.319541 44.885625,235.169434 108.731093,208.522306 C108.238383,202.914642 107.986799,197.237596 107.986799,191.50165 C107.986799,85.738209 193.521837,0 299.034653,0 C368.541329,0 429.37859,37.206345 462.805784,92.83387 C483.637342,81.66468 507.44854,75.330033 532.739274,75.330033 C614.59316,75.330033 680.948845,141.685718 680.948845,223.539604 C680.948845,227.483823 680.794774,231.392056 680.492321,235.258614 C752.561359,250.1033 806.74917,313.910822 806.74917,390.374587 C806.74917,476.80455 737.515253,547.064063 651.481223,548.719314 C650.968067,548.958711 650.395687,549.092409 649.792079,549.092409 L167.072607,549.092409 C166.733595,549.092409 166.433983,548.923712 166.25314,548.665684 Z" id="Combined-Shape"></path>
            </g>
            <path d="M777,768 L81,0" id="Path-8" stroke-linecap="round"></path>
        </g>
    </g>
</svg>