<?xml version="1.0" encoding="UTF-8"?>
<svg width="1240px" height="1240px" viewBox="0 0 1240 1240" version="1.1" xmlns="http://www.w3.org/2000/svg" xmlns:xlink="http://www.w3.org/1999/xlink">
    <!-- Generator: Sketch 55.2 (78181) - https://sketchapp.com -->
    <title>dollar</title>
    <desc>Created with Sketch.</desc>
    <g id="dollar" stroke="none" stroke-width="1" fill="none" fill-rule="evenodd">
        <path d="M602,953.4 L602,884.2 C576.399872,881.53332 551.60012,874.466724 527.6,863 C503.59988,851.533276 483.066752,838.066744 466,822.6 L496.4,777 C513.466752,791.933408 532.266564,804.599948 552.8,815 C573.333436,825.400052 595.866544,830.6 620.4,830.6 C650.266816,830.6 672.53326,823.133408 687.2,808.2 C701.86674,793.266592 709.2,773.266792 709.2,748.2 C709.2,726.86656 703.733388,709.133404 692.8,695 C681.866612,680.866596 668.133416,668.600052 651.6,658.2 C635.066584,647.799948 617.066764,638.066712 597.6,629 C578.133236,619.933288 560.133416,609.533392 543.6,597.8 C527.066584,586.066608 513.333388,571.800084 502.4,555 C491.466612,538.199916 486,516.733464 486,490.6 C486,454.866488 496.533228,425.133452 517.6,401.4 C538.666772,377.666548 566.799824,363.13336 602,357.8 L602,287 C602,281.477153 606.477153,277 612,277 L640,277 C645.522847,277 650,281.477153 650,287 L650,356.2 C675.600128,358.86668 697.333244,365.799944 715.2,377 C733.066756,388.200056 749.199928,401.533256 763.6,417 L728.4,456.2 C713.466592,441.799928 698.933404,430.60004 684.8,422.6 C670.666596,414.59996 652.666776,410.6 630.8,410.6 C606.266544,410.6 586.800072,417.533264 572.4,431.4 C557.999928,445.266736 550.8,463.933216 550.8,487.4 C550.8,506.600096 556.266612,522.333272 567.2,534.6 C578.133388,546.866728 591.866584,557.66662 608.4,567 C624.933416,576.33338 642.933236,585.399956 662.4,594.2 C681.866764,603.000044 699.866584,613.666604 716.4,626.2 C732.933416,638.733396 746.666612,654.199908 757.6,672.6 C768.533388,691.000092 774,714.599856 774,743.4 C774,781.800192 762.933444,813.266544 740.8,837.8 C718.666556,862.333456 688.400192,877.26664 650,882.6 L650,953.4 C650,958.922847 645.522847,963.4 640,963.4 L612,963.4 C606.477153,963.4 602,958.922847 602,953.4 Z" id="$" fill="#979797" fill-rule="nonzero"></path>
    </g>
</svg>