<?xml version="1.0" encoding="UTF-8"?>
<svg width="1240px" height="1240px" viewBox="0 0 1240 1240" version="1.1" xmlns="http://www.w3.org/2000/svg" xmlns:xlink="http://www.w3.org/1999/xlink">
    <!-- Generator: Sketch 55.2 (78181) - https://sketchapp.com -->
    <title>edit2</title>
    <desc>Created with Sketch.</desc>
    <g id="edit2" stroke="none" stroke-width="1" fill="none" fill-rule="evenodd">
        <g id="Group-2" transform="translate(278.000000, 305.000000)" stroke="#979797" stroke-width="50">
            <g id="Group" transform="translate(0.000000, 78.773913)" stroke-linecap="round">
                <path d="M551,267.023077 L551,500.986154 C551,528.608038 528.608038,551 500.986154,551 L50.0138462,551 C22.3919616,551 0,528.608038 0,500.986154 L0,50.0138462 C0,22.3919616 22.3919616,0 50.0138462,0 L50.0138462,0 L396.72,0" id="Path"></path>
            </g>
            <path d="M413.345473,56.0014513 C406.981686,62.376025 403.407453,71.0153306 403.407453,80.022715 L403.407453,420.372671 C403.407453,439.150352 418.629772,454.372671 437.407453,454.372671 L468.848817,454.372671 C487.626498,454.372671 502.848817,439.150352 502.848817,420.372671 L502.848817,79.8934186 C502.848817,70.9301481 499.309412,62.3294687 493.000594,55.9624418 L453.341599,15.937531 L413.345473,56.0014513 Z" id="Rectangle" transform="translate(453.128135, 229.929193) rotate(225.000000) translate(-453.128135, -229.929193) "></path>
        </g>
    </g>
</svg>