<?xml version="1.0" encoding="UTF-8"?>
<svg width="1240px" height="1240px" viewBox="0 0 1240 1240" version="1.1" xmlns="http://www.w3.org/2000/svg" xmlns:xlink="http://www.w3.org/1999/xlink">
    <!-- Generator: Sketch 55.2 (78181) - https://sketchapp.com -->
    <title>ether</title>
    <desc>Created with Sketch.</desc>
    <g id="ether" stroke="none" stroke-width="1" fill="none" fill-rule="evenodd">
        <path d="M424,835.65625 L816.109375,835.65625 C821.632222,835.65625 826.109375,840.133403 826.109375,845.65625 L826.109375,892.84375 C826.109375,898.366597 821.632222,902.84375 816.109375,902.84375 L424,902.84375 C418.477153,902.84375 414,898.366597 414,892.84375 L414,845.65625 C414,840.133403 418.477153,835.65625 424,835.65625 Z M429.859375,338 L810.640625,338 C816.163472,338 820.640625,342.477153 820.640625,348 L820.640625,395.1875 C820.640625,400.710347 816.163472,405.1875 810.640625,405.1875 L429.859375,405.1875 C424.336528,405.1875 419.859375,400.710347 419.859375,395.1875 L419.859375,348 C419.859375,342.477153 424.336528,338 429.859375,338 Z M459.9375,573.15625 L780.171875,573.15625 C785.694722,573.15625 790.171875,577.633403 790.171875,583.15625 L790.171875,630.34375 C790.171875,635.866597 785.694722,640.34375 780.171875,640.34375 L459.9375,640.34375 C454.414653,640.34375 449.9375,635.866597 449.9375,630.34375 L449.9375,583.15625 C449.9375,577.633403 454.414653,573.15625 459.9375,573.15625 Z" id="Ξ" fill="#979797" fill-rule="nonzero"></path>
    </g>
</svg>