<?xml version="1.0" encoding="UTF-8"?>
<svg width="1240px" height="1240px" viewBox="0 0 1240 1240" version="1.1" xmlns="http://www.w3.org/2000/svg" xmlns:xlink="http://www.w3.org/1999/xlink">
    <!-- Generator: Sketch 55.2 (78181) - https://sketchapp.com -->
    <title>euro</title>
    <desc>Created with Sketch.</desc>
    <g id="euro" stroke="none" stroke-width="1" fill="none" fill-rule="evenodd">
        <path d="M669.8,884.6 C645.79988,884.6 623.533436,880.200044 603,871.4 C582.466564,862.599956 564.20008,849.666752 548.2,832.6 C532.19992,815.533248 518.733388,794.866788 507.8,770.6 C496.866612,746.333212 489.000024,718.466824 484.2,687 L443,687 C437.477153,687 433,682.522847 433,677 L433,661.944989 C433,656.684684 437.075329,652.323706 442.323587,651.967892 L480.2,649.4 C479.666664,644.599976 479.4,639.800024 479.4,635 L479.4,607.8 C479.4,603.533312 479.666664,599.266688 480.2,595 L433,595 L433,569.049221 C433,563.828452 437.016214,559.486233 442.221123,559.0796 L484.2,555.8 C489.000024,524.333176 496.999944,496.200124 508.2,471.4 C519.400056,446.599876 533.399916,425.53342 550.2,408.2 C567.000084,390.86658 586.466556,377.666712 608.6,368.6 C630.733444,359.533288 654.866536,355 681,355 C705.00012,355 727.399896,360.99994 748.2,373 C769.000104,385.00006 786.333264,399.799912 800.2,417.4 L761,455 C749.799944,441.133264 737.5334,429.800044 724.2,421 C710.8666,412.199956 695.666752,407.8 678.6,407.8 C643.399824,407.8 615.13344,420.866536 593.8,447 C572.46656,473.133464 558.333368,509.399768 551.4,555.8 L744.6,555.8 C750.122847,555.8 754.6,560.277153 754.6,565.8 L754.6,585 C754.6,590.522847 750.122847,595 744.6,595 L548.2,595 C547.666664,598.733352 547.4,602.466648 547.4,606.2 L547.4,633.8 C547.4,638.866692 547.666664,643.799976 548.2,648.6 L712.6,648.6 C718.122847,648.6 722.6,653.077153 722.6,658.6 L722.6,677 C722.6,682.522847 718.122847,687 712.6,687 L552.2,687 C559.133368,732.33356 572.866564,767.799872 593.4,793.4 C613.933436,819.000128 640.733168,831.8 673.8,831.8 C693.533432,831.8 710.73326,827.000048 725.4,817.4 C740.06674,807.799952 754.333264,793.66676 768.2,775 L807.4,810.2 C789.799912,833.666784 769.800112,851.933268 747.4,865 C724.999888,878.066732 699.13348,884.6 669.8,884.6 Z" id="€" fill="#979797" fill-rule="nonzero"></path>
    </g>
</svg>