<?xml version="1.0" encoding="UTF-8"?>
<svg width="1240px" height="1240px" viewBox="0 0 1240 1240" version="1.1" xmlns="http://www.w3.org/2000/svg" xmlns:xlink="http://www.w3.org/1999/xlink">
    <!-- Generator: Sketch 55.2 (78181) - https://sketchapp.com -->
    <title>facebook</title>
    <desc>Created with Sketch.</desc>
    <g id="facebook" stroke="none" stroke-width="1" fill="none" fill-rule="evenodd">
        <g id="logo_facebook" transform="translate(338.000000, 339.000000)" fill-rule="nonzero" stroke="#979797" stroke-width="50">
            <path d="M531.917708,0 L31.0822917,0 C13.9283854,0 0,13.9283854 0,31.0822917 L0,531.917708 C0,549.071615 13.9283854,563 31.0822917,563 L281.5,563 L281.5,340.145833 L214.203906,340.145833 L214.203906,258.041667 L281.5,258.041667 L281.5,197.343229 C281.5,124.622396 331.935417,85.0364583 396.885677,85.0364583 C427.967969,85.0364583 461.396094,87.3822917 469.166667,88.4085937 L469.166667,164.354948 L417.411719,164.354948 C382.077604,164.354948 375.333333,181.06901 375.333333,205.70026 L375.333333,258.041667 L459.490104,258.041667 L448.49401,340.145833 L375.333333,340.145833 L375.333333,563 L531.917708,563 C549.071615,563 563,549.071615 563,531.917708 L563,31.0822917 C563,13.9283854 549.071615,0 531.917708,0 Z" id="Path"></path>
        </g>
    </g>
</svg>