<?xml version="1.0" encoding="UTF-8"?>
<svg width="1240px" height="1240px" viewBox="0 0 1240 1240" version="1.1" xmlns="http://www.w3.org/2000/svg" xmlns:xlink="http://www.w3.org/1999/xlink">
    <!-- Generator: Sketch 55.2 (78181) - https://sketchapp.com -->
    <title>github</title>
    <desc>Created with Sketch.</desc>
    <g id="github" stroke="none" stroke-width="1" fill="none" fill-rule="evenodd" stroke-linejoin="round">
        <path d="M505.03125,971.066071 C505.03125,959.624107 503.778036,879.942857 503.57,840 C503.57,809 521.882143,763.8625 535.196429,751.796429 C431.802679,739.730357 323,698.747321 323,515.675893 C323,463.458929 341.099107,420.811607 370.848214,387.525893 C366.063393,375.459821 350.044643,326.779464 375.425,261.040179 C375.425,261.040179 378.753571,260 385.826786,260 C402.677679,260 440.748214,266.449107 503.575,310.136607 C540.813393,299.526786 580.548214,294.325893 620.283036,294.117857 C659.809821,294.325893 699.752679,299.526786 736.991071,310.136607 C799.817857,266.449107 837.888393,260 854.739286,260 C861.8125,260 865.141071,261.040179 865.141071,261.040179 C890.521429,326.779464 874.502679,375.459821 869.717857,387.525893 C899.466964,421.019643 917.566071,463.666964 917.566071,515.675893 C917.566071,699.163393 808.555357,739.522321 704.745536,751.380357 C721.388393,766.150893 736.366964,795.275893 736.366964,839.795536 C736.366964,903.6625 735.742857,955.255357 735.742857,970.858036 C735.742857,982.091964 505.03125,982.091964 505.03125,971.066071 Z" id="Path" stroke="#979797" stroke-width="50" fill-rule="nonzero"></path>
    </g>
</svg>