<?xml version="1.0" encoding="UTF-8"?>
<svg width="1241px" height="1240px" viewBox="0 0 1241 1240" version="1.1" xmlns="http://www.w3.org/2000/svg" xmlns:xlink="http://www.w3.org/1999/xlink">
    <!-- Generator: Sketch 55.2 (78181) - https://sketchapp.com -->
    <title>hashtag</title>
    <desc>Created with Sketch.</desc>
    <g id="hashtag" stroke="none" stroke-width="1" fill="none" fill-rule="evenodd" transform="translate(1.000000, 0.000000)">
        <path d="M471.554764,911.783885 L492.070236,744.339192 C492.741878,738.857336 488.842429,733.868941 483.360573,733.197299 C482.957087,733.147864 482.550962,733.123077 482.144458,733.123077 L429,733.123077 C423.477153,733.123077 419,728.645924 419,723.123077 L419,690.069231 C419,684.546383 423.477153,680.069231 429,680.069231 L491.100616,680.069231 C496.156638,680.069231 500.417216,676.295331 501.027501,671.276277 L515.345627,553.522431 C516.012261,548.039964 512.108256,543.055133 506.625789,542.3885 C506.225284,542.339801 505.822198,542.315385 505.418742,542.315385 L447.611111,542.315385 C442.088264,542.315385 437.611111,537.838232 437.611111,532.315385 L437.611111,498.330769 C437.611111,492.807922 442.088264,488.330769 447.611111,488.330769 L514.400129,488.330769 C519.440907,488.330769 523.693653,484.578957 524.322106,479.577507 L543.525116,326.753262 C544.153569,321.751812 548.406315,318 553.447094,318 L582.609267,318 C588.132114,318 592.609267,322.477153 592.609267,328 C592.609267,328.416799 592.583208,328.833191 592.531244,329.246738 L573.954867,477.084031 C573.266312,482.563788 577.150349,487.564193 582.630106,488.252747 C583.043654,488.304711 583.460045,488.330769 583.876844,488.330769 L687.531137,488.330769 C692.55145,488.330769 696.793607,484.608524 697.446271,479.630816 L717.498173,326.699953 C718.150838,321.722246 722.392994,318 727.413307,318 L756.561566,318 C762.084414,318 766.561566,322.477153 766.561566,328 C766.561566,328.434733 766.533218,328.869003 766.4767,329.300047 L747.106633,477.030722 C746.388637,482.5067 750.245743,487.527907 755.72172,488.245903 C756.152764,488.30242 756.587034,488.330769 757.021767,488.330769 L811,488.330769 C816.522847,488.330769 821,492.807922 821,498.330769 L821,532.315385 C821,537.838232 816.522847,542.315385 811,542.315385 L748.899384,542.315385 C743.843362,542.315385 739.582784,546.089284 738.972499,551.108338 L724.654373,668.862184 C723.987739,674.344651 727.891744,679.329482 733.374211,679.996115 C733.774716,680.044814 734.177802,680.069231 734.581258,680.069231 L792.388889,680.069231 C797.911736,680.069231 802.388889,684.546383 802.388889,690.069231 L802.388889,723.123077 C802.388889,728.645924 797.911736,733.123077 792.388889,733.123077 L725.627346,733.123077 C720.574808,733.123077 716.316015,736.891925 715.701568,741.906962 L694.590098,914.216115 C693.975651,919.231152 689.716859,923 684.66432,923 L655.43958,923 C649.916732,923 645.43958,918.522847 645.43958,913 C645.43958,912.609615 645.46244,912.219565 645.508043,911.831852 L665.21418,744.291225 C665.85933,738.806188 661.935827,733.83669 656.45079,733.19154 C656.063078,733.145937 655.673028,733.123077 655.282642,733.123077 L552.544013,733.123077 C547.491475,733.123077 543.232682,736.891925 542.618235,741.906962 L521.506765,914.216115 C520.892318,919.231152 516.633525,923 511.580987,923 L481.480542,923 C475.957694,923 471.480542,918.522847 471.480542,913 C471.480542,912.593497 471.505328,912.187371 471.554764,911.783885 Z M550,680 L673.2,680 L690,542 L566.8,542 L550,680 Z" id="#" fill="#979797" fill-rule="nonzero"></path>
    </g>
</svg>