<?xml version="1.0" encoding="UTF-8"?>
<svg width="1240px" height="1240px" viewBox="0 0 1240 1240" version="1.1" xmlns="http://www.w3.org/2000/svg" xmlns:xlink="http://www.w3.org/1999/xlink">
    <!-- Generator: Sketch 55.2 (78181) - https://sketchapp.com -->
    <title>heart</title>
    <desc>Created with Sketch.</desc>
    <g id="heart" stroke="none" stroke-width="1" fill="none" fill-rule="evenodd">
        <g id="HeartOutlined" transform="translate(318.000000, 339.000000)" stroke="#979797" stroke-width="50">
            <path d="M5.29018742,212.712991 C2.25600967,199.882536 0.650162338,186.498468 0.650162338,172.738636 C0.650162338,172.714228 0.650162338,172.68982 0.650162338,172.665413 C0.650162338,172.641951 0.650162338,172.618493 0.650162338,172.595035 C0.650162338,171.558576 0.660027282,170.528754 0.679757169,169.505567 C2.40029783,75.5965536 78.922121,0 173.067638,0 C224.168563,0 270.077242,22.2720515 301.650162,57.655608 C333.223083,22.2720515 379.131762,0 430.232687,0 C524.905357,0 601.75642,76.4455073 602.642423,171.084769 C602.650162,171.611315 602.650162,172.139581 602.650162,172.669581 C602.650162,172.692598 602.650162,172.715617 602.650162,172.738636 C602.650162,185.978718 601.163339,198.870886 598.347844,211.256695 C577.225334,308.672602 478.326107,425.920369 301.650162,563 C125.898004,426.59359 27.1113473,309.831259 5.29019107,212.713005 L5.29018742,212.712991 Z" id="Combined-Shape"></path>
        </g>
    </g>
</svg>