<?xml version="1.0" encoding="UTF-8"?>
<svg width="1240px" height="1240px" viewBox="0 0 1240 1240" version="1.1" xmlns="http://www.w3.org/2000/svg" xmlns:xlink="http://www.w3.org/1999/xlink">
    <!-- Generator: Sketch 55.2 (78181) - https://sketchapp.com -->
    <title>helpCircle</title>
    <desc>Created with Sketch.</desc>
    <g id="helpCircle" stroke="none" stroke-width="1" fill="none" fill-rule="evenodd">
        <g id="Group" transform="translate(270.000000, 270.000000)">
            <circle id="Oval" stroke="#979797" stroke-width="50" cx="350" cy="350" r="350"></circle>
            <path d="M321.2,432.4 C318.799988,416.799922 319.299983,402.700063 322.7,390.1 C326.100017,377.499937 330.79997,365.900053 336.8,355.3 C342.80003,344.699947 349.699961,334.800046 357.5,325.6 C365.300039,316.399954 372.599966,307.300045 379.4,298.3 C386.200034,289.299955 391.899977,280.200046 396.5,271 C401.100023,261.799954 403.4,251.800054 403.4,241 C403.4,224.99992 398.500049,211.300057 388.7,199.9 C378.899951,188.499943 364.400096,182.8 345.2,182.8 C331.999934,182.8 319.500059,185.899969 307.7,192.1 C295.899941,198.300031 285.400046,206.799946 276.2,217.6 L248,191.8 C260.800064,177.399928 275.699915,165.500047 292.7,156.1 C309.700085,146.699953 329.19989,142 351.2,142 C381.600152,142 405.899909,150.499915 424.1,167.5 C442.300091,184.500085 451.4,207.99985 451.4,238 C451.4,251.200066 449.000024,263.199946 444.2,274 C439.399976,284.800054 433.500035,294.999952 426.5,304.6 C419.499965,314.200048 412.100039,323.699953 404.3,333.1 C396.499961,342.500047 389.300033,352.19995 382.7,362.2 C376.099967,372.20005 371.000018,382.899943 367.4,394.3 C363.799982,405.700057 362.799992,418.39993 364.4,432.4 L321.2,432.4 Z M344,558.4 C333.99995,558.4 325.600034,554.900035 318.8,547.9 C311.999966,540.899965 308.6,532.000054 308.6,521.2 C308.6,509.599942 311.999966,500.300035 318.8,493.3 C325.600034,486.299965 333.99995,482.8 344,482.8 C354.00005,482.8 362.499965,486.299965 369.5,493.3 C376.500035,500.300035 380,509.599942 380,521.2 C380,532.000054 376.500035,540.899965 369.5,547.9 C362.499965,554.900035 354.00005,558.4 344,558.4 Z" id="?" fill="#979797" fill-rule="nonzero"></path>
        </g>
    </g>
</svg>