<?xml version="1.0" encoding="UTF-8"?>
<svg width="1240px" height="1240px" viewBox="0 0 1240 1240" version="1.1" xmlns="http://www.w3.org/2000/svg" xmlns:xlink="http://www.w3.org/1999/xlink">
    <!-- Generator: Sketch 55.2 (78181) - https://sketchapp.com -->
    <title>home</title>
    <desc>Created with Sketch.</desc>
    <g id="home" stroke="none" stroke-width="1" fill="none" fill-rule="evenodd">
        <g id="Group" transform="translate(284.000000, 258.000000)" stroke="#979797" stroke-width="50">
            <path d="M279.820548,724 L640.843867,724 C657.412409,724 670.843867,710.568542 670.843867,694 L670.843867,306.069695 C670.843867,297.430244 667.119275,289.210187 660.623641,283.513974 L356.988719,17.2475965 C345.718122,7.36407893 328.881811,7.31687224 317.555967,17.1370325 L10.3470224,283.504925 C3.77518878,289.203084 -1.8828786e-14,297.473048 -5.68434189e-14,306.171209 L-5.68434189e-14,694 C-1.21035556e-13,710.568542 13.4314575,724 30,724 L107.196479,724 L107.196479,448 C107.196479,431.431458 120.627937,418 137.196479,418 L249.820548,418 C266.389091,418 279.820548,431.431458 279.820548,448 L279.820548,724 Z M58.3205481,724 L360.320548,724" id="Combined-Shape" fill-rule="nonzero"></path>
            <rect id="Rectangle" x="410.820548" y="422" width="137" height="153" rx="2"></rect>
        </g>
    </g>
</svg>