<?xml version="1.0" encoding="UTF-8"?>
<svg width="1240px" height="1240px" viewBox="0 0 1240 1240" version="1.1" xmlns="http://www.w3.org/2000/svg" xmlns:xlink="http://www.w3.org/1999/xlink">
    <!-- Generator: Sketch 55.2 (78181) - https://sketchapp.com -->
    <title>inbox</title>
    <desc>Created with Sketch.</desc>
    <g id="inbox" stroke="none" stroke-width="1" fill="none" fill-rule="evenodd">
        <g id="Group-2" transform="translate(273.000000, 320.000000)" stroke="#979797" stroke-width="50">
            <g id="Group">
                <path d="M32.3201303,279.33279 C27.5010802,289.424859 25,300.466905 25,311.650514 L25,523 C25,552.271092 48.7289083,576 78,576 L615,576 C644.271092,576 668,552.271092 668,523 L668,310.003057 C668,299.614855 665.841951,289.339929 661.662633,279.829512 L555.457051,38.1490936 C551.945849,30.1590341 544.043532,25 535.316012,25 L167.640527,25 C159.163479,25 151.440551,29.8704607 147.787765,37.5201345 L32.3201303,279.33279 Z" id="Combined-Shape"></path>
            </g>
            <path d="M33,301 L235.923914,301 C238.514646,301 240.979724,302.11643 242.688545,304.063691 L280.311455,346.936309 C282.020276,348.88357 284.485354,350 287.076086,350 L403.104537,350 C405.590095,350 407.96499,348.972076 409.666195,347.159923 L450.333805,303.840077 C452.03501,302.027924 454.409905,301 456.895463,301 L662,301" id="Path-17"></path>
        </g>
    </g>
</svg>