<?xml version="1.0" encoding="UTF-8"?>
<svg width="1241px" height="1240px" viewBox="0 0 1241 1240" version="1.1" xmlns="http://www.w3.org/2000/svg" xmlns:xlink="http://www.w3.org/1999/xlink">
    <!-- Generator: Sketch 55.2 (78181) - https://sketchapp.com -->
    <title>italic</title>
    <desc>Created with Sketch.</desc>
    <g id="italic" stroke="none" stroke-width="1" fill="none" fill-rule="evenodd" transform="translate(1.000000, 0.000000)">
        <path d="M637.575842,906.84 L417.369872,906.84 C411.847025,906.84 407.369872,902.362847 407.369872,896.84 C407.369872,896.135702 407.444277,895.433374 407.591848,894.744709 L413.128991,868.904709 C414.117,864.294001 418.191637,861 422.907015,861 L482.236313,861 C486.476822,861 490.25625,858.325471 491.666834,854.32645 L654.332901,393.16645 C656.170049,387.958117 653.437163,382.246627 648.22883,380.409479 C647.160284,380.032568 646.035452,379.84 644.90238,379.84 L596.913444,379.84 C591.390596,379.84 586.913444,375.362847 586.913444,369.84 C586.913444,369.135702 586.987848,368.433374 587.135419,367.744709 L592.672562,341.904709 C593.660571,337.294001 597.735209,334 602.450586,334 L822.656556,334 C828.179404,334 832.656556,338.477153 832.656556,344 C832.656556,344.704298 832.582152,345.406626 832.434581,346.095291 L826.897438,371.935291 C825.909429,376.545999 821.834791,379.84 817.119414,379.84 L757.790115,379.84 C753.549606,379.84 749.770179,382.514529 748.359594,386.51355 L585.693528,847.67355 C583.85638,852.881883 586.589266,858.593373 591.797599,860.430521 C592.866145,860.807432 593.990977,861 595.124049,861 L643.112985,861 C648.635832,861 653.112985,865.477153 653.112985,871 C653.112985,871.704298 653.03858,872.406626 652.891009,873.095291 L647.353866,898.935291 C646.365857,903.545999 642.29122,906.84 637.575842,906.84 Z" id="I" fill="#979797" fill-rule="nonzero"></path>
    </g>
</svg>