<?xml version="1.0" encoding="UTF-8"?>
<svg width="1240px" height="1240px" viewBox="0 0 1240 1240" version="1.1" xmlns="http://www.w3.org/2000/svg" xmlns:xlink="http://www.w3.org/1999/xlink">
    <!-- Generator: Sketch 55.2 (78181) - https://sketchapp.com -->
    <title>link</title>
    <desc>Created with Sketch.</desc>
    <g id="link" stroke="none" stroke-width="1" fill="none" fill-rule="evenodd" stroke-linecap="round">
        <g id="Link" transform="translate(256.000000, 257.000000)" stroke="#979797" stroke-width="50">
            <g id="Group" transform="translate(363.099332, 363.099332) rotate(45.000000) translate(-363.099332, -363.099332) translate(215.099332, -2.400668)">
                <path d="M295.078517,589.651337 C295.078517,560.378798 295.078517,512.898395 295.075444,509.498916 C294.888824,379.768944 289.665107,318.452579 143.447388,318.452579 C123.590572,318.452579 106.477192,319.672222 91.7292455,322.09439 C36.0431498,331.240145 14.0812006,357.530399 5.49447027,400.043709 C-1.01078689,432.251546 0.160649235,473.77059 0.160649235,524.200177 C0.160649235,655.097197 0.160649235,730.452579 147.580437,730.452579 C160.522919,730.452579 172.329768,729.96968 183.100632,728.991662" id="Oval" transform="translate(147.578517, 524.452579) rotate(180.000000) translate(-147.578517, -524.452579) "></path>
                <path d="M295.078517,269.602452 C295.078517,240.223438 295.078517,194.629591 295.075444,191.300864 C294.888824,61.5708926 289.665107,0.254527624 143.447388,0.254527624 C123.590572,0.254527624 106.477192,1.4741703 91.7292452,3.89633881 C36.0431495,13.0420936 14.0812003,39.3323478 5.49446999,81.8456576 C-1.01078717,114.053495 0.160648953,155.572538 0.160648953,206.002126 C0.160648953,336.899145 0.160648953,412.254528 147.580437,412.254528 C160.090851,412.254528 171.540191,411.803332 182.018452,410.889905" id="Oval"></path>
            </g>
        </g>
    </g>
</svg>