<?xml version="1.0" encoding="UTF-8"?>
<svg width="1240px" height="1240px" viewBox="0 0 1240 1240" version="1.1" xmlns="http://www.w3.org/2000/svg" xmlns:xlink="http://www.w3.org/1999/xlink">
    <!-- Generator: Sketch 55.2 (78181) - https://sketchapp.com -->
    <title>linkedin</title>
    <desc>Created with Sketch.</desc>
    <g id="linkedin" stroke="none" stroke-width="1" fill="none" fill-rule="evenodd">
        <g id="Group" transform="translate(290.000000, 290.000000)">
            <g id="logo-linkedin" fill-rule="nonzero" stroke="#979797" stroke-width="50">
                <path d="M607.218868,0 L56.3895212,0 C26.3036486,0 0,21.6618911 0,51.4040115 L0,603.438395 C0,633.352436 26.3036486,660 56.3895212,660 L607.046949,660 C637.304741,660 659.999048,633.180516 659.999048,603.438395 L659.999048,51.4040115 C660.170004,21.6618911 637.304741,0 607.218868,0 Z" id="Shape"></path>
            </g>
            <path d="M456.386905,550 L456.386905,389.18 C456.386905,350.652 442.625,324.336 408.392262,324.336 C382.244643,324.336 366.7625,342.052 359.881548,359.252 C357.30119,365.444 356.613095,373.872 356.613095,382.472 L356.613095,550 L262,550 L262,255.88 L356.613095,255.88 L356.613095,296.816 C370.375,277.208 391.877976,249 441.936905,249 C504.0375,249 551,289.936 551,378.172 L551,550 L456.386905,550 Z" id="Path" fill="#979797"></path>
            <polygon id="Path" fill="#979797" points="204 550 110 550 110 256 204 256"></polygon>
            <path d="M160.243655,211 L159.560068,211 C129.482234,211 110,188.574576 110,160.5 C110,131.911864 129.994924,110 160.756345,110 C191.517766,110 210.316413,131.740678 211,160.5 C211,188.574576 191.517766,211 160.243655,211 Z" id="Path" fill="#979797"></path>
        </g>
    </g>
</svg>