<?xml version="1.0" encoding="UTF-8"?>
<svg width="1240px" height="1240px" viewBox="0 0 1240 1240" version="1.1" xmlns="http://www.w3.org/2000/svg" xmlns:xlink="http://www.w3.org/1999/xlink">
    <!-- Generator: Sketch 55.2 (78181) - https://sketchapp.com -->
    <title>linkExternal</title>
    <desc>Created with Sketch.</desc>
    <g id="linkExternal" stroke="none" stroke-width="1" fill="none" fill-rule="evenodd" stroke-linecap="round">
        <g id="Group-4" transform="translate(281.000000, 295.000000)" stroke="#979797" stroke-width="50">
            <g id="Group-2" transform="translate(0.000000, 178.915522)">
                <g id="Group" transform="translate(0.000000, 0.773913)">
                    <path d="M471,228.253846 L471,428.247692 C471,451.85914 451.85914,471 428.247692,471 L42.7523077,471 C19.1408601,471 0,451.85914 0,428.247692 L0,42.7523077 C0,19.1408601 19.1408601,0 42.7523077,0 L42.7523077,0 L339.12,0" id="Path"></path>
                </g>
            </g>
            <g id="Group-3" transform="translate(410.931935, 266.468777) rotate(45.000000) translate(-410.931935, -266.468777) translate(280.431935, 20.468777)">
                <g id="Group-2" transform="translate(130.364026, 245.678409) scale(1, -1) translate(-130.364026, -245.678409) translate(0.364026, 0.178409)">
                    <g id="Group" transform="translate(0.628969, 0.000000)">
                        <polyline id="Path" stroke-linejoin="round" transform="translate(129.701456, 424.500000) scale(1, -1) translate(-129.701456, -424.500000) " points="0.731347381 490 129.701456 359 258.671565 490"></polyline>
                        <path d="M129.701456,450.474903 L129.701456,0.474903475" id="Line"></path>
                    </g>
                </g>
            </g>
        </g>
    </g>
</svg>