<?xml version="1.0" encoding="UTF-8"?>
<svg width="1240px" height="1240px" viewBox="0 0 1240 1240" version="1.1" xmlns="http://www.w3.org/2000/svg" xmlns:xlink="http://www.w3.org/1999/xlink">
    <!-- Generator: Sketch 55.2 (78181) - https://sketchapp.com -->
    <title>lock</title>
    <desc>Created with Sketch.</desc>
    <g id="lock" stroke="none" stroke-width="1" fill="none" fill-rule="evenodd">
        <g id="Lock" transform="translate(327.000000, 304.000000)" stroke="#979797" stroke-width="50">
            <path d="M46.5,270 L439.5,270 C465.181241,270 486,285.973472 486,305.677749 L486,534.322251 C486,554.026528 465.181241,570 439.5,570 L46.5,570 C20.818759,570 0,554.026528 0,534.322251 L0,305.677749 C0,285.973472 20.818759,270 46.5,270 Z" id="Combined-Shape" fill-rule="nonzero"></path>
            <path d="M122,286.220877 C122,230.991223 122,191.646151 122,168.185659 C122,54.196017 182.325022,0 242.650044,0 C302.975066,0 363.300088,42.013562 363.300088,168.185659 C363.300088,189.634194 363.300088,228.979267 363.300088,286.220877" id="Path-5"></path>
        </g>
    </g>
</svg>