<?xml version="1.0" encoding="UTF-8"?>
<svg width="1241px" height="1240px" viewBox="0 0 1241 1240" version="1.1" xmlns="http://www.w3.org/2000/svg" xmlns:xlink="http://www.w3.org/1999/xlink">
    <!-- Generator: Sketch 55.2 (78181) - https://sketchapp.com -->
    <title>lockFull</title>
    <desc>Created with Sketch.</desc>
    <g id="lockFull" stroke="none" stroke-width="1" fill="none" fill-rule="evenodd" transform="translate(1.000000, 0.000000)">
        <g id="Lock" transform="translate(377.000000, 304.000000)">
            <path d="M46.5,241 L439.5,241 C465.181241,241 486,261.818759 486,287.5 L486,585.5 C486,611.181241 465.181241,632 439.5,632 L46.5,632 C20.818759,632 0,611.181241 0,585.5 L0,287.5 C0,261.818759 20.818759,241 46.5,241 Z M221,427.056471 L221,510 C221,522.150264 230.849736,532 243,532 C255.150264,532 265,522.150264 265,510 L265,427.609948 C279.286351,419.936012 289,404.852378 289,387.5 C289,362.371044 268.628956,342 243.5,342 C218.371044,342 198,362.371044 198,387.5 C198,404.444413 207.26227,419.225507 221,427.056471 Z" id="Combined-Shape" fill="#979797" fill-rule="nonzero"></path>
            <path d="M122,286.220877 C122,230.991223 122,191.646151 122,168.185659 C122,54.196017 182.325022,0 242.650044,0 C302.975066,0 363.300088,42.013562 363.300088,168.185659 C363.300088,189.634194 363.300088,228.979267 363.300088,286.220877" id="Path-5" stroke="#979797" stroke-width="50"></path>
        </g>
    </g>
</svg>