<?xml version="1.0" encoding="UTF-8"?>
<svg width="1240px" height="1240px" viewBox="0 0 1240 1240" version="1.1" xmlns="http://www.w3.org/2000/svg" xmlns:xlink="http://www.w3.org/1999/xlink">
    <!-- Generator: Sketch 55.2 (78181) - https://sketchapp.com -->
    <title>phoneForwarded</title>
    <desc>Created with Sketch.</desc>
    <g id="phoneForwarded" stroke="none" stroke-width="1" fill="none" fill-rule="evenodd">
        <g id="Group-2" transform="translate(293.000000, 294.000000)" stroke="#979797" stroke-width="50">
            <g id="Group" fill-rule="nonzero">
                <g id="_ionicons_svg_ios-call">
                    <path d="M634.341459,505.832372 C609.620649,481.109604 550.257073,443.941363 520.995707,429.982249 C487.025615,413.668587 474.581126,414.004951 450.532992,431.327706 C430.520908,445.791366 417.571913,459.245933 394.532791,454.20047 C371.493669,449.32319 326.088101,414.845861 282.027883,370.950336 C237.967665,326.886628 203.661236,281.477464 198.784341,258.436518 C193.907447,235.22739 207.360949,222.445551 221.655294,202.431882 C238.976678,178.381843 239.481184,165.936369 223.000644,131.963587 C209.042636,102.531721 172.045507,43.3316256 147.156529,18.6088585 C122.435719,-6.11390868 116.88615,-0.732081814 103.264479,4.14519878 C103.264479,4.14519878 83.0842268,12.2179391 63.072143,25.5043241 C38.3513336,41.9861689 24.5614944,55.7771002 14.8077057,76.4634972 C5.22208573,97.1498942 -20.608122,149.294702 35.8965851,249.867591 C81.4703221,331.09954 320.774484,570.422654 402,616 C502.564925,672.509182 555.806643,647.778055 576.491401,638.191676 C597.17616,628.605297 610.966,614.814366 627.446539,589.923416 C640.731872,569.909748 648.803973,549.727897 648.803973,549.727897 C653.680867,536.105148 659.230437,530.555139 634.341459,505.832372 Z" id="Path"></path>
                </g>
            </g>
            <g id="Group" transform="translate(527.500000, 223.000000) rotate(270.000000) translate(-527.500000, -223.000000) translate(425.000000, 98.000000)" stroke-linecap="round">
                <polyline id="Path" stroke-linejoin="round" transform="translate(102.915205, 197.500000) scale(1, -1) translate(-102.915205, -197.500000) " points="0.915204678 249.5 102.915205 145.5 204.915205 249.5"></polyline>
                <path d="M103.665205,223.5 L103.098249,0.5" id="Line"></path>
            </g>
        </g>
    </g>
</svg>