<?xml version="1.0" encoding="UTF-8"?>
<svg width="1240px" height="1240px" viewBox="0 0 1240 1240" version="1.1" xmlns="http://www.w3.org/2000/svg" xmlns:xlink="http://www.w3.org/1999/xlink">
    <!-- Generator: Sketch 55.2 (78181) - https://sketchapp.com -->
    <title>printer</title>
    <desc>Created with Sketch.</desc>
    <g id="printer" stroke="none" stroke-width="1" fill="none" fill-rule="evenodd">
        <g id="Group" transform="translate(261.000000, 258.000000)" stroke="#979797" stroke-width="50">
            <path d="M155,580 L57,580 C25.5197693,580 0,554.480231 0,523 L0,315 C0,283.519769 25.5197693,258 57,258 L57,258 L660,258 C691.480231,258 717,283.519769 717,315 L717,523 C717,554.480231 691.480231,580 660,580 L550,580" id="Path"></path>
            <rect id="Rectangle" x="164" y="444" width="378" height="254" rx="7"></rect>
            <path d="M145,270 L145,6.36363636 C145,2.84909705 148.134007,0 152,0 L566,0 C569.865993,0 573,2.84909705 573,6.36363636 L573,270" id="Path"></path>
        </g>
    </g>
</svg>