<?xml version="1.0" encoding="UTF-8"?>
<svg width="1240px" height="1240px" viewBox="0 0 1240 1240" version="1.1" xmlns="http://www.w3.org/2000/svg" xmlns:xlink="http://www.w3.org/1999/xlink">
    <!-- Generator: Sketch 55.2 (78181) - https://sketchapp.com -->
    <title>save</title>
    <desc>Created with Sketch.</desc>
    <g id="save" stroke="none" stroke-width="1" fill="none" fill-rule="evenodd">
        <g id="Save" transform="translate(279.000000, 291.000000)" fill-rule="nonzero" stroke="#979797" stroke-width="50">
            <path d="M32,0 L518.59967,0 C531.357094,0 543.58972,5.82045787 552.59591,16.1758957 L666.698919,147.373069 C675.658481,157.674895 680.693519,171.624115 680.702667,186.169474 L681,622.298934 C681.012729,642.553769 666.696171,658.985392 649.023063,659 C649.015376,659 649.007688,659 649,659 L32,658.973576 C14.326888,658.973576 0,642.553784 0,622.298943 L0,36.6746325 C0,16.4197923 14.326888,0 32,0 Z M129,6 L129,144.091514 C129,152.325244 135.955626,159 144.535827,159 L434.464173,159 C443.044374,159 450,152.325244 450,144.091514 L449.769128,6 M339.5,487 C397.766041,487 445,439.766041 445,381.5 C445,323.233959 397.766041,276 339.5,276 C281.233959,276 234,323.233959 234,381.5 C234,439.766041 281.233959,487 339.5,487 Z" id="Combined-Shape"></path>
        </g>
    </g>
</svg>