<?xml version="1.0" encoding="UTF-8"?>
<svg width="1240px" height="1240px" viewBox="0 0 1240 1240" version="1.1" xmlns="http://www.w3.org/2000/svg" xmlns:xlink="http://www.w3.org/1999/xlink">
    <!-- Generator: Sketch 55.2 (78181) - https://sketchapp.com -->
    <title>settings</title>
    <desc>Created with Sketch.</desc>
    <g id="settings" stroke="none" stroke-width="1" fill="none" fill-rule="evenodd">
        <path d="M699.926342,339.533424 C747.249061,352.968845 789.679453,378.027216 823.933226,411.425685 L885.898454,375.665706 C891.325459,372.533794 898.264943,374.39241 901.398226,379.817039 L969.477947,497.682961 C972.611229,503.10759 970.7518,510.044038 965.324796,513.175948 L903.283259,548.979968 C909.04687,571.866114 912.108139,595.825714 912.108139,620.5 C912.108139,645.174286 909.04687,669.133886 903.283259,692.020032 L965.324796,727.824052 C970.7518,730.955962 972.611229,737.89241 969.477947,743.317039 L901.398226,861.182961 C898.264943,866.60759 891.325459,868.466206 885.898454,865.334294 L823.933225,829.574312 C789.679453,862.972784 747.249061,888.031155 699.926342,901.466576 L699.926342,972.658346 C699.926342,978.922168 694.846286,984 688.579721,984 L552.420279,984 C546.153713,984 541.073659,978.922168 541.073659,972.658346 L541.073659,901.786228 C493.489133,888.485255 450.808533,863.444562 416.354522,829.985354 L355.101546,865.334294 C349.674542,868.466206 342.735057,866.60759 339.601775,861.182961 L271.522054,743.317039 C268.388771,737.89241 270.2482,730.955962 275.675205,727.824052 L336.726599,692.591441 C330.869654,669.5328 327.757199,645.379717 327.757199,620.5 C327.757199,595.620283 330.869654,571.4672 336.726599,548.408559 L275.675205,513.175948 C270.2482,510.044038 268.388771,503.10759 271.522054,497.682961 L339.601775,379.817039 C342.735057,374.39241 349.674542,372.533794 355.101546,375.665706 L416.354523,411.014649 C450.808533,377.555438 493.489133,352.514745 541.073659,339.213772 L541.073659,268.341654 C541.073659,262.077832 546.153713,257 552.420279,257 L688.579721,257 C694.846286,257 699.926342,262.077832 699.926342,268.341654 L699.926342,339.533424 Z M620,486 C545.441558,486 485,546.441559 485,621 C485,695.558441 545.441558,756 620,756 C694.558441,756 755,695.558441 755,621 C755,546.441559 694.558441,486 620,486 Z" id="Combined-Shape" stroke="#979797" stroke-width="50" fill-rule="nonzero"></path>
    </g>
</svg>