<?xml version="1.0" encoding="UTF-8"?>
<svg width="1240px" height="1240px" viewBox="0 0 1240 1240" version="1.1" xmlns="http://www.w3.org/2000/svg" xmlns:xlink="http://www.w3.org/1999/xlink">
    <!-- Generator: Sketch 55.2 (78181) - https://sketchapp.com -->
    <title>slack</title>
    <desc>Created with Sketch.</desc>
    <g id="slack" stroke="none" stroke-width="1" fill="none" fill-rule="evenodd">
        <g id="Group-6" transform="translate(238.000000, 239.000000)" stroke="#979797" stroke-width="50">
            <g id="Group-5" transform="translate(400.000000, 1.500000)">
                <g id="Group-4">
                    <rect id="Rectangle" x="25" y="25" width="109.592326" height="309.329513" rx="54.7961631"></rect>
                    <path d="M283.162005,224.820851 C252.922023,224.820851 228.407674,249.3352 228.407674,279.575182 L228.407674,313.329513 C228.407674,324.927493 237.809694,334.329513 249.407674,334.329513 L283.245669,334.329513 C313.485651,334.329513 338,309.815164 338,279.575182 C338,249.3352 313.485651,224.820851 283.245669,224.820851 L283.162005,224.820851 Z" id="Rectangle"></path>
                </g>
                <g id="Group-4" transform="translate(181.164601, 578.726427) rotate(90.000000) translate(-181.164601, -578.726427) translate(-0.335399, 398.726427)">
                    <rect id="Rectangle" x="25" y="25" width="109.592326" height="309.329513" rx="54.7961631"></rect>
                    <path d="M283.162005,224.820851 C252.922023,224.820851 228.407674,249.3352 228.407674,279.575182 L228.407674,313.329513 C228.407674,324.927493 237.809694,334.329513 249.407674,334.329513 L283.245669,334.329513 C313.485651,334.329513 338,309.815164 338,279.575182 C338,249.3352 313.485651,224.820851 283.245669,224.820851 L283.162005,224.820851 Z" id="Rectangle"></path>
                </g>
            </g>
            <g id="Group-5" transform="translate(181.500000, 381.000000) scale(-1, -1) translate(-181.500000, -381.000000) translate(0.000000, 0.500000)">
                <g id="Group-4">
                    <rect id="Rectangle" x="25" y="25" width="109.592326" height="309.329513" rx="54.7961631"></rect>
                    <path d="M283.162005,224.820851 C252.922023,224.820851 228.407674,249.3352 228.407674,279.575182 L228.407674,313.329513 C228.407674,324.927493 237.809694,334.329513 249.407674,334.329513 L283.245669,334.329513 C313.485651,334.329513 338,309.815164 338,279.575182 C338,249.3352 313.485651,224.820851 283.245669,224.820851 L283.162005,224.820851 Z" id="Rectangle"></path>
                </g>
                <g id="Group-4" transform="translate(181.164601, 578.726427) rotate(90.000000) translate(-181.164601, -578.726427) translate(-0.335399, 398.726427)">
                    <rect id="Rectangle" x="25" y="25" width="109.592326" height="309.329513" rx="54.7961631"></rect>
                    <path d="M283.162005,224.820851 C252.922023,224.820851 228.407674,249.3352 228.407674,279.575182 L228.407674,313.329513 C228.407674,324.927493 237.809694,334.329513 249.407674,334.329513 L283.245669,334.329513 C313.485651,334.329513 338,309.815164 338,279.575182 C338,249.3352 313.485651,224.820851 283.245669,224.820851 L283.162005,224.820851 Z" id="Rectangle"></path>
                </g>
            </g>
        </g>
    </g>
</svg>