<?xml version="1.0" encoding="UTF-8"?>
<svg width="1240px" height="1240px" viewBox="0 0 1240 1240" version="1.1" xmlns="http://www.w3.org/2000/svg" xmlns:xlink="http://www.w3.org/1999/xlink">
    <!-- Generator: Sketch 55.2 (78181) - https://sketchapp.com -->
    <title>sun</title>
    <desc>Created with Sketch.</desc>
    <g id="sun" stroke="none" stroke-width="1" fill="none" fill-rule="evenodd">
        <g id="Group-4" transform="translate(-175.000000, -174.000000)" stroke="#979797" stroke-width="50">
            <g id="Group-3" transform="translate(795.000000, 794.500000) rotate(45.000000) translate(-795.000000, -794.500000) translate(233.000000, 233.000000)">
                <g id="Group-2" transform="translate(562.000000, 561.500000) rotate(45.000000) translate(-562.000000, -561.500000) translate(165.000000, 165.000000)">
                    <g id="Group" transform="translate(397.000000, 396.500000) rotate(45.000000) translate(-397.000000, -396.500000) translate(218.000000, 15.000000)">
                        <circle id="Oval" cx="179" cy="384" r="179"></circle>
                        <path d="M179,89 L179,0" id="Path-12" stroke-linecap="round"></path>
                        <path d="M179,763 L179,674" id="Path-12" stroke-linecap="round"></path>
                    </g>
                    <path d="M397,104 L397,15" id="Path-12" stroke-linecap="round"></path>
                    <path d="M397,778 L397,689" id="Path-12" stroke-linecap="round"></path>
                </g>
                <path d="M562,269 L562,180" id="Path-12" stroke-linecap="round"></path>
                <path d="M562,943 L562,854" id="Path-12" stroke-linecap="round"></path>
            </g>
            <path d="M795,502 L795,413" id="Path-12" stroke-linecap="round"></path>
            <path d="M795,1176 L795,1087" id="Path-12" stroke-linecap="round"></path>
        </g>
    </g>
</svg>