<?xml version="1.0" encoding="UTF-8"?>
<svg width="1240px" height="1240px" viewBox="0 0 1240 1240" version="1.1" xmlns="http://www.w3.org/2000/svg" xmlns:xlink="http://www.w3.org/1999/xlink">
    <!-- Generator: Sketch 55.2 (78181) - https://sketchapp.com -->
    <title>sunset</title>
    <desc>Created with Sketch.</desc>
    <g id="sunset" stroke="none" stroke-width="1" fill="none" fill-rule="evenodd">
        <g id="Group-5" transform="translate(620.000000, 715.500000) rotate(135.000000) translate(-620.000000, -715.500000) translate(249.000000, 345.000000)" stroke="#979797" stroke-width="50">
            <path d="M382,183 C283.14103,183 203,263.14103 203,362 C203,460.85897 283.14103,541 382,541 L382,541 C480.85897,541 561,460.85897 561,362" id="Path"></path>
            <path d="M382,741 L382,652" id="Path-12" stroke-linecap="round"></path>
            <path d="M143.705015,165.705015 L143.705015,76.7050147" id="Path-12" stroke-linecap="round" transform="translate(143.705015, 121.205015) rotate(-45.000000) translate(-143.705015, -121.205015) "></path>
            <path d="M620.294985,642.294985 L620.294985,553.294985" id="Path-12" stroke-linecap="round" transform="translate(620.294985, 597.794985) rotate(-45.000000) translate(-620.294985, -597.794985) "></path>
            <path d="M45,404 L45,315" id="Path-12" stroke-linecap="round" transform="translate(45.000000, 359.500000) rotate(-90.000000) translate(-45.000000, -359.500000) "></path>
            <path d="M101.632161,743.867839 L101.632161,535.867839" id="Path-12" stroke-linecap="round" transform="translate(101.632161, 639.867839) rotate(-135.000000) translate(-101.632161, -639.867839) "></path>
            <polyline id="Path" stroke-linecap="round" stroke-linejoin="round" transform="translate(156.153097, 586.054010) scale(1, -1) rotate(135.000000) translate(-156.153097, -586.054010) " points="68.5237192 630.55401 156.153097 541.55401 243.782475 630.55401"></polyline>
            <path d="M90.3025612,270.404546 L853.302561,270.404546" id="Path-13" stroke-linecap="round" transform="translate(471.802561, 270.404546) rotate(-135.000000) translate(-471.802561, -270.404546) "></path>
        </g>
    </g>
</svg>