<?xml version="1.0" encoding="UTF-8"?>
<svg width="1240px" height="1240px" viewBox="0 0 1240 1240" version="1.1" xmlns="http://www.w3.org/2000/svg" xmlns:xlink="http://www.w3.org/1999/xlink">
    <!-- Generator: Sketch 55.2 (78181) - https://sketchapp.com -->
    <title>thumbDownFull</title>
    <desc>Created with Sketch.</desc>
    <g id="thumbDownFull" stroke="none" stroke-width="1" fill="none" fill-rule="evenodd">
        <g id="ThumbDown" transform="translate(325.000000, 313.000000)" fill="#979797" fill-rule="nonzero">
            <path d="M235,613.947846 L235,613.997702 L0,613.997702 L0,306.997702 L96.128306,306.997702 C112.54537,260.703123 141.255961,223.030105 176.943381,200.765929 C196.313809,183.671841 208.784309,165.637342 214.354881,146.662433 C222.364373,119.379882 220.147318,88.5128059 207.703713,54.0612059 L207.703732,54.0611989 C200.141279,33.1236459 210.983939,10.0198269 231.921492,2.45737286 C235.443964,1.18508786 239.126566,0.409933858 242.863029,0.154279858 C276.481289,-2.14593314 306.326228,21.5193299 311.749241,54.7769499 C318.052965,93.4358639 321.853597,121.430929 323.15111,138.762149 C324.298988,154.094651 324.737568,177.774559 324.466848,209.801875 L523.656327,209.801875 C552.558911,209.801875 575.989084,233.232048 575.989084,262.134632 C575.989084,283.643351 563.01337,302.12143 544.462865,310.167946 C570.638165,313.05176 591,335.239708 591,362.183417 C591,389.068018 570.727404,411.217701 544.635046,414.17963 C563.209271,422.215891 576.205719,440.706304 576.205719,462.232201 C576.205719,489.419283 555.474379,511.764302 528.957874,514.321082 C547.418447,522.406162 560.315669,540.83742 560.315669,562.280986 C560.315669,591.18357 536.885496,614.613743 507.982912,614.613743 L344.846388,614.613743 C342.954042,614.868229 340.992539,614.997702 338.960487,614.997702 C314.234677,614.997702 286.89225,614.997702 251.871263,614.997702 C246.178189,614.997702 240.550144,614.642272 235,613.947846 Z" id="Combined-Shape" transform="translate(295.500000, 307.498850) scale(-1, 1) rotate(-180.000000) translate(-295.500000, -307.498850) "></path>
        </g>
    </g>
</svg>