<?xml version="1.0" encoding="UTF-8"?>
<svg width="1240px" height="1240px" viewBox="0 0 1240 1240" version="1.1" xmlns="http://www.w3.org/2000/svg" xmlns:xlink="http://www.w3.org/1999/xlink">
    <!-- Generator: Sketch 55.2 (78181) - https://sketchapp.com -->
    <title>thumbDown</title>
    <desc>Created with Sketch.</desc>
    <g id="thumbDown" stroke="none" stroke-width="1" fill="none" fill-rule="evenodd" stroke-linecap="round">
        <path d="M332,619.997703 L428.128306,619.997703 C444.54537,573.703124 473.255961,536.030106 508.943381,513.76593 C528.313809,496.671842 540.784309,478.637343 546.354881,459.662434 C554.364373,432.379883 552.147318,401.512807 539.703713,367.061207 C532.141279,346.123647 542.983939,323.019828 563.921492,315.457374 C567.443964,314.185089 571.126566,313.409935 574.863029,313.154281 C608.481289,310.854068 638.326228,334.519331 643.749241,367.776951 C650.052965,406.435865 653.853597,434.43093 655.15111,451.76215 C656.298988,467.094652 656.737568,490.77456 656.466848,522.801876 L855.656327,522.801876 C884.558911,522.801876 907.989084,546.232049 907.989084,575.134633 C907.989084,596.643352 892.315669,853.837421 892.315669,875.280987 C892.315669,904.183571 868.885496,927.613744 839.982912,927.613744 C688.608778,927.430169 575.078178,927.292489 499.391111,927.200701 C476.169731,927.17254 452.717647,895.956892 415,885 C399.865495,880.60346 372.198828,880.60346 332,885" id="Path" stroke="#979797" stroke-width="50" fill-rule="nonzero" transform="translate(619.994542, 620.306872) scale(1, -1) translate(-619.994542, -620.306872) "></path>
    </g>
</svg>