<?xml version="1.0" encoding="UTF-8"?>
<svg width="1240px" height="1240px" viewBox="0 0 1240 1240" version="1.1" xmlns="http://www.w3.org/2000/svg" xmlns:xlink="http://www.w3.org/1999/xlink">
    <!-- Generator: Sketch 55.2 (78181) - https://sketchapp.com -->
    <title>thumbUpFull</title>
    <desc>Created with Sketch.</desc>
    <g id="thumbUpFull" stroke="none" stroke-width="1" fill="none" fill-rule="evenodd">
        <g id="ThumbUp" transform="translate(325.000000, 313.000000)" fill="#979797" fill-rule="nonzero">
            <path d="M235,613.947847 L235,613.997703 L0,613.997703 L0,306.997703 L96.128306,306.997703 C112.54537,260.703124 141.255961,223.030106 176.943381,200.76593 C196.313809,183.671842 208.784309,165.637343 214.354881,146.662434 C222.364373,119.379883 220.147318,88.512807 207.703713,54.061207 L207.703732,54.0612 C200.141279,33.123647 210.983939,10.019828 231.921492,2.457374 C235.443964,1.185089 239.126566,0.409935 242.863029,0.154281 C276.481289,-2.145932 306.326228,21.519331 311.749241,54.776951 C318.052965,93.435865 321.853597,121.43093 323.15111,138.76215 C324.298988,154.094652 324.737568,177.77456 324.466848,209.801876 L523.656327,209.801876 C552.558911,209.801876 575.989084,233.232049 575.989084,262.134633 C575.989084,283.643352 563.01337,302.121431 544.462865,310.167947 C570.638165,313.051761 591,335.239709 591,362.183418 C591,389.068019 570.727404,411.217702 544.635046,414.179631 C563.209271,422.215892 576.205719,440.706305 576.205719,462.232202 C576.205719,489.419284 555.474379,511.764303 528.957874,514.321083 C547.418447,522.406163 560.315669,540.837421 560.315669,562.280987 C560.315669,591.183571 536.885496,614.613744 507.982912,614.613744 L344.846388,614.613744 C342.954042,614.86823 340.992539,614.997703 338.960487,614.997703 C314.234677,614.997703 286.89225,614.997703 251.871263,614.997703 C246.178189,614.997703 240.550144,614.642273 235,613.947847 Z" id="Combined-Shape"></path>
        </g>
    </g>
</svg>