<?xml version="1.0" encoding="UTF-8"?>
<svg width="1240px" height="1240px" viewBox="0 0 1240 1240" version="1.1" xmlns="http://www.w3.org/2000/svg" xmlns:xlink="http://www.w3.org/1999/xlink">
    <!-- Generator: Sketch 55.2 (78181) - https://sketchapp.com -->
    <title>tool</title>
    <desc>Created with Sketch.</desc>
    <g id="tool" stroke="none" stroke-width="1" fill="none" fill-rule="evenodd">
        <path d="M539,220 L539,414.375947 C539,435.915052 556.460895,453.375947 578,453.375947 L662,453.375947 C683.539105,453.375947 701,435.915052 701,414.375947 L701,220 C773.935775,251.403507 825,323.926382 825,408.375947 C825,497.758743 767.795552,573.780724 688.000001,601.828547 L688,951.875947 C688,989.155167 657.779221,1019.37595 620.5,1019.37595 C583.220779,1019.37595 553,989.155167 553,951.875947 L553,602.177129 C472.682806,574.414883 415,498.131686 415,408.375947 C415,323.926382 466.064225,251.403507 538.999995,220.000002 Z" id="Combined-Shape" stroke="#979797" stroke-width="50" transform="translate(620.000000, 619.687973) rotate(45.000000) translate(-620.000000, -619.687973) "></path>
    </g>
</svg>