<?xml version="1.0" encoding="UTF-8"?>
<svg width="1240px" height="1240px" viewBox="0 0 1240 1240" version="1.1" xmlns="http://www.w3.org/2000/svg" xmlns:xlink="http://www.w3.org/1999/xlink">
    <!-- Generator: Sketch 55.2 (78181) - https://sketchapp.com -->
    <title>twitter</title>
    <desc>Created with Sketch.</desc>
    <g id="twitter" stroke="none" stroke-width="1" fill="none" fill-rule="evenodd" stroke-linejoin="round">
        <g id="logo-twitter" transform="translate(242.000000, 317.000000)" fill-rule="nonzero" stroke="#979797" stroke-width="50">
            <path d="M756,42.609375 C693.48674,41.978125 650.600961,43.9244792 627.34266,48.4484375 C599.401128,18.621875 559.619962,0 515.734391,0 C431.278346,0 362.924201,68.490625 362.924201,152.920312 C362.924201,164.914062 364.187095,176.592187 366.870745,187.796875 C239.792023,181.484375 127.078722,120.56875 51.7786594,27.9328125 C38.6761328,50.5 -9.62956776,202 15.6283149,303 C40.8861975,404 122.342869,475.33125 189.276258,476.59375 C137.024013,517.625 108.13531,539.0875 36.4660681,539.0875 C24.1528503,539.0875 11.9974943,538.298438 0,536.878125 C67.4069743,580.75 147.758613,606 233.951138,606 C515.418668,606 669.176028,372.910937 669.176028,170.753125 C669.176028,164.125 669.018167,157.496875 668.702443,151.026563 C688.593026,136.613021 717.692211,100.473958 756,42.609375 Z" id="Path"></path>
        </g>
    </g>
</svg>