<?xml version="1.0" encoding="UTF-8"?>
<svg width="1240px" height="1240px" viewBox="0 0 1240 1240" version="1.1" xmlns="http://www.w3.org/2000/svg" xmlns:xlink="http://www.w3.org/1999/xlink">
    <!-- Generator: Sketch 55.2 (78181) - https://sketchapp.com -->
    <title>type</title>
    <desc>Created with Sketch.</desc>
    <g id="type" stroke="none" stroke-width="1" fill="none" fill-rule="evenodd">
        <path d="M736.8,900 L502.4,900 C496.877153,900 492.4,895.522847 492.4,890 L492.4,865.2 C492.4,859.677153 496.877153,855.2 502.4,855.2 L564.8,855.2 C570.322847,855.2 574.8,850.722847 574.8,845.2 L574.8,394.812602 C574.8,389.289755 570.322847,384.812602 564.8,384.812602 C564.795802,384.812602 564.791604,384.812605 564.787406,384.81261 L425.954335,384.987463 C420.449354,384.994396 415.985243,389.449333 415.966984,394.954288 L415.633057,495.633167 C415.614783,501.143036 411.143012,505.6 405.633112,505.6 L368,505.6 C362.477153,505.6 358,501.122847 358,495.6 L358,350 C358,344.477153 362.477153,340 368,340 L871.2,340 C876.722847,340 881.2,344.477153 881.2,350 L881.2,495.6 C881.2,501.122847 876.722847,505.6 871.2,505.6 L833.633222,505.6 C828.110375,505.6 823.633222,501.122847 823.633222,495.6 C823.633222,495.588944 823.633241,495.577888 823.633278,495.566833 L823.966764,395.020602 C823.985082,389.497785 819.522804,385.005808 813.999986,384.98749 C813.993108,384.987467 813.986229,384.987451 813.97935,384.987443 L674.412531,384.812547 C668.889688,384.805626 664.406929,389.277165 664.400008,394.800008 C664.400003,394.804185 664.4,394.808362 664.4,394.812539 L664.4,845.2 C664.4,850.722847 668.877153,855.2 674.4,855.2 L736.8,855.2 C742.322847,855.2 746.8,859.677153 746.8,865.2 L746.8,890 C746.8,895.522847 742.322847,900 736.8,900 Z" id="T" fill="#979797" fill-rule="nonzero"></path>
    </g>
</svg>