<?xml version="1.0" encoding="UTF-8"?>
<svg width="1240px" height="1240px" viewBox="0 0 1240 1240" version="1.1" xmlns="http://www.w3.org/2000/svg" xmlns:xlink="http://www.w3.org/1999/xlink">
    <!-- Generator: Sketch 55.2 (78181) - https://sketchapp.com -->
    <title>yen</title>
    <desc>Created with Sketch.</desc>
    <g id="yen" stroke="none" stroke-width="1" fill="none" fill-rule="evenodd">
        <path d="M587.2,865.4 L587.2,759 C587.2,753.477153 582.722847,749 577.2,749 L467.6,749 C462.077153,749 457.6,744.522847 457.6,739 L457.6,720.6 C457.6,715.077153 462.077153,710.6 467.6,710.6 L577.2,710.6 C582.722847,710.6 587.2,706.122847 587.2,700.6 L587.2,668.6 C587.2,663.077153 582.722847,658.6 577.2,658.6 L467.6,658.6 C462.077153,658.6 457.6,654.122847 457.6,648.6 L457.6,631 C457.6,625.477153 462.077153,621 467.6,621 L554.083671,621 C559.606518,621 564.083671,616.522847 564.083671,611 C564.083671,609.4223 563.710371,607.866986 562.994278,606.461159 L447.405722,379.538841 C444.898989,374.617648 446.856296,368.596125 451.777489,366.089393 C453.183316,365.3733 454.738629,365 456.316329,365 L502.370207,365 C506.286858,365 509.842967,367.286504 511.468397,370.849948 L571.2,501.8 C579.20004,519.400088 587.066628,537.133244 594.8,555 C602.533372,572.866756 610.666624,591.13324 619.2,609.8 L622.4,609.8 C631.466712,591.13324 639.866628,572.866756 647.6,555 C655.333372,537.133244 663.19996,519.400088 671.2,501.8 L730.931603,370.849948 C732.557033,367.286504 736.113142,365 740.029793,365 L784.438202,365 C789.96105,365 794.438202,369.477153 794.438202,375 C794.438202,376.586077 794.06093,378.149405 793.337535,379.560908 L677.062465,606.439092 C674.543545,611.354058 676.485924,617.380413 681.40089,619.899333 C682.812392,620.622728 684.375721,621 685.961798,621 L773.2,621 C778.722847,621 783.2,625.477153 783.2,631 L783.2,648.6 C783.2,654.122847 778.722847,658.6 773.2,658.6 L662.8,658.6 C657.277153,658.6 652.8,663.077153 652.8,668.6 L652.8,700.6 C652.8,706.122847 657.277153,710.6 662.8,710.6 L773.2,710.6 C778.722847,710.6 783.2,715.077153 783.2,720.6 L783.2,739 C783.2,744.522847 778.722847,749 773.2,749 L662.8,749 C657.277153,749 652.8,753.477153 652.8,759 L652.8,865.4 C652.8,870.922847 648.322847,875.4 642.8,875.4 L597.2,875.4 C591.677153,875.4 587.2,870.922847 587.2,865.4 Z" id="¥" fill="#979797" fill-rule="nonzero"></path>
    </g>
</svg>