<?xml version="1.0" encoding="UTF-8"?>
<svg width="1240px" height="1240px" viewBox="0 0 1240 1240" version="1.1" xmlns="http://www.w3.org/2000/svg" xmlns:xlink="http://www.w3.org/1999/xlink">
    <!-- Generator: Sketch 52.5 (67469) - http://www.bohemiancoding.com/sketch -->
    <title>Artboard</title>
    <desc>Created with Sketch.</desc>
    <g id="Artboard" stroke="none" strokeWidth="1" fill="none" fill-rule="evenodd">
        <g id="Group" transform="translate(286.000000, 120.000000)" fill="#000000">
            <g id="_ionicons_svg_ios-arrow-round-back">
                <path d="M195.591696,242.470588 L-14.4429066,453.197232 L785.903114,453.197232 C810.470588,453.197232 830.539792,473.266436 830.539792,498.179931 C830.539792,523.093426 810.470588,543.16263 785.903114,543.16263 L-14.4429066,543.16263 L195.937716,753.889273 C213.238754,771.536332 212.892734,799.910035 195.591696,817.557093 C177.944637,834.858131 149.916955,834.858131 132.269896,817.211073 L-152.851211,530.013841 C-156.657439,525.861592 -159.771626,521.363322 -162.193772,515.82699 C-164.615917,510.290657 -165.653979,504.408304 -165.653979,498.525952 C-165.653979,486.761246 -161.155709,475.688581 -152.851211,467.038062 L132.269896,179.84083 C149.224913,161.847751 177.598616,161.50173 195.245675,178.802768 C212.892734,196.103806 212.892734,224.823529 195.591696,242.470588 Z" id="Path" transform="translate(332.442907, 498.285679) rotate(90.000000) translate(-332.442907, -498.285679) "></path>
            </g>
        </g>
    </g>
</svg>
