<?xml version="1.0" encoding="UTF-8"?>
<svg width="1240px" height="1240px" viewBox="0 0 1240 1240" version="1.1" xmlns="http://www.w3.org/2000/svg" xmlns:xlink="http://www.w3.org/1999/xlink">
    <!-- Generator: Sketch 52.5 (67469) - http://www.bohemiancoding.com/sketch -->
    <title>Artboard</title>
    <desc>Created with Sketch.</desc>
    <g id="Artboard" stroke="none" stroke-width="1" fill="none" fill-rule="evenodd">
        <g id="ArrowBack" transform="translate(120.000000, 286.000000)" fill="#000000">
            <path d="M361.591696,76.4705882 L151.557093,287.197232 L951.903114,287.197232 C976.470588,287.197232 996.539792,307.266436 996.539792,332.179931 C996.539792,357.093426 976.470588,377.16263 951.903114,377.16263 L151.557093,377.16263 L361.937716,587.889273 C379.238754,605.536332 378.892734,633.910035 361.591696,651.557093 C343.944637,668.858131 315.916955,668.858131 298.269896,651.211073 L13.1487889,364.013841 C9.34256055,359.861592 6.2283737,355.363322 3.80622837,349.82699 C1.38408304,344.290657 0.346020761,338.408304 0.346020761,332.525952 C0.346020761,320.761246 4.84429066,309.688581 13.1487889,301.038062 L298.269896,13.8408304 C315.224913,-4.15224913 343.598616,-4.4982699 361.245675,12.8027682 C378.892734,30.1038062 378.892734,58.8235294 361.591696,76.4705882 Z" id="Path"></path>
        </g>
    </g>
</svg>
