<?xml version="1.0" encoding="UTF-8"?>
<svg width="1240px" height="1240px" viewBox="0 0 1240 1240" version="1.1" xmlns="http://www.w3.org/2000/svg" xmlns:xlink="http://www.w3.org/1999/xlink">
    <!-- Generator: Sketch 52.5 (67469) - http://www.bohemiancoding.com/sketch -->
    <title>Artboard</title>
    <desc>Created with Sketch.</desc>
    <g id="Artboard" stroke="none" stroke-width="1" fill="none" fill-rule="evenodd">
        <path d="M312.5,322 L927.5,322 C942.135546,322 954,333.864454 954,348.5 L954,732.679878 C954,747.315424 942.135546,759.179878 927.5,759.179878 L407.444212,759.179878 L286,917 L286,348.5 C286,333.864454 297.864454,322 312.5,322 Z M522,567 C539.120827,567 553,553.120827 553,536 C553,518.879173 539.120827,505 522,505 C504.879173,505 491,518.879173 491,536 C491,553.120827 504.879173,567 522,567 Z M621,567 C638.120827,567 652,553.120827 652,536 C652,518.879173 638.120827,505 621,505 C603.879173,505 590,518.879173 590,536 C590,553.120827 603.879173,567 621,567 Z M719,567 C736.120827,567 750,553.120827 750,536 C750,518.879173 736.120827,505 719,505 C701.879173,505 688,518.879173 688,536 C688,553.120827 701.879173,567 719,567 Z" id="Combined-Shape" fill="#000000"></path>
    </g>
</svg>