<?xml version="1.0" encoding="UTF-8"?>
<svg width="815px" height="815px" viewBox="0 0 815 815" version="1.1" xmlns="http://www.w3.org/2000/svg" xmlns:xlink="http://www.w3.org/1999/xlink">
    <!-- Generator: Sketch 52.5 (67469) - http://www.bohemiancoding.com/sketch -->
    <title>Combined Shape</title>
    <desc>Created with Sketch.</desc>
    <g id="Page-1" stroke="none" stroke-width="1" fill="none" fill-rule="evenodd">
        <g id="Artboard" transform="translate(-213.000000, -213.000000)" fill="#000000">
            <path d="M557.873935,620.099332 L225.887302,288.112698 C208.704233,270.92963 208.704233,243.07037 225.887302,225.887302 C243.07037,208.704233 270.92963,208.704233 288.112698,225.887302 L620.099332,557.873935 L952.085966,225.887302 C969.269035,208.704233 997.128294,208.704233 1014.31136,225.887302 C1031.49443,243.07037 1031.49443,270.92963 1014.31136,288.112698 L682.324729,620.099332 L1014.31136,952.085966 C1031.49443,969.269035 1031.49443,997.128294 1014.31136,1014.31136 C997.128294,1031.49443 969.269035,1031.49443 952.085966,1014.31136 L620.099332,682.324729 L288.112698,1014.31136 C270.92963,1031.49443 243.07037,1031.49443 225.887302,1014.31136 C208.704233,997.128294 208.704233,969.269035 225.887302,952.085966 L557.873935,620.099332 Z" id="Combined-Shape"></path>
        </g>
    </g>
</svg>