<?xml version="1.0" encoding="UTF-8"?>
<svg width="1240px" height="1240px" viewBox="0 0 1240 1240" version="1.1" xmlns="http://www.w3.org/2000/svg" xmlns:xlink="http://www.w3.org/1999/xlink">
    <!-- Generator: Sketch 52.5 (67469) - http://www.bohemiancoding.com/sketch -->
    <title>Artboard</title>
    <desc>Created with Sketch.</desc>
    <g id="Artboard" stroke="none" stroke-width="1" fill="none" fill-rule="evenodd">
        <g id="Group" transform="translate(322.000000, 260.000000)" stroke="#000000" stroke-width="70">
            <path d="M561,192.300029 L421.275393,35 L124.995999,35 C122.78686,35 120.995999,36.790861 120.995999,39 L120.995999,603.00562 C120.995999,605.214759 122.78686,607.00562 124.995999,607.00562 L557,607.00562 C559.209139,607.00562 561,605.214759 561,603.00562 L561,192.300029 Z" id="Rectangle"></path>
            <path d="M561,214 L438,214 C418.117749,214 402,197.882251 402,178 L402,35 L125,35 C122.790861,35 121,36.790861 121,39 L121,603 C121,605.209139 122.790861,607 125,607 L557,607 C559.209139,607 561,605.209139 561,603 L561,214 Z" id="Rectangle"></path>
            <path d="M103,155 L40,155 C17.90861,155 1.03875995e-13,172.90861 1.0658141e-13,195 L1.13686838e-13,681.000001 C1.16392253e-13,703.091391 17.90861,721.000001 40,721.000001 L371,721.000001 C393.09139,721.000001 411,703.091391 411,681.000001 L411,624" id="Path" stroke-linecap="round" stroke-linejoin="round"></path>
        </g>
    </g>
</svg>