<?xml version="1.0" encoding="UTF-8"?>
<svg width="1240px" height="1240px" viewBox="0 0 1240 1240" version="1.1" xmlns="http://www.w3.org/2000/svg" xmlns:xlink="http://www.w3.org/1999/xlink">
    <!-- Generator: Sketch 52.5 (67469) - http://www.bohemiancoding.com/sketch -->
    <title>Artboard</title>
    <desc>Created with Sketch.</desc>
    <g id="Artboard" stroke="none" stroke-width="1" fill="none" fill-rule="evenodd">
        <g id="Group-2" transform="translate(80.000000, 280.000000)" stroke="#000000">
            <g id="Group">
                <ellipse id="Oval" stroke-width="54" cx="207.656422" cy="473.378049" rx="207.656422" ry="207.621951"></ellipse>
                <ellipse id="Oval" stroke-width="54" cx="873.343578" cy="473.378049" rx="207.656422" ry="207.621951"></ellipse>
                <path d="M620.151783,492.087954 L620.299683,491.860627 L868.601479,491.860627 C882.740546,491.860627 894.202525,480.398649 894.202525,466.259582 C894.202525,464.015837 893.913983,461.810694 893.34391,459.657156 C892.879943,457.444654 892.009263,455.326052 890.750811,453.388527 L890.592154,453.143619 C890.265478,452.597104 889.918501,452.062939 889.541577,451.52678 L683.254244,133.924873 L705.607381,50.5156793 L750.027499,50.5156794 C764.11861,50.5156794 775.541712,39.0925767 775.541712,25.0014656 C775.541712,24.3470742 775.514392,23.6929682 775.459823,23.0408561 C774.377008,10.1009996 763.009387,0.488972425 750.069536,1.57180163 C689.426918,6.64641204 651.649321,11.4408659 636.791713,15.9415603 C625.861316,19.2526167 617.531222,25.3841357 611.781407,34.3454015 C610.695798,36.0373564 610.118711,38.0053914 610.118711,40.0156794 C610.118711,45.8146691 614.819721,50.5156791 620.618711,50.5156791 L667.331721,50.5156792 L648.940538,119.141115 L325.192562,119.141115 L334.941225,82.7646482 C334.9415,82.7636219 334.9415,82.7636219 334.941775,82.7625955 C338.600937,69.1041528 330.494917,55.065461 316.836475,51.4062998 C303.176522,47.746734 289.136121,55.8529631 285.475421,69.5126121 L181.671892,456.84835 C181.671617,456.849376 181.671617,456.849376 181.671342,456.850403 C178.012181,470.508845 186.1182,484.547537 199.776643,488.206698 C213.436596,491.866264 227.476997,483.760035 231.137696,470.100386 L297.455527,222.639955 L516.597977,441.746028 L516.499463,442.039662 C514.520764,447.937439 513.5,454.149095 513.5,460.5 C513.5,492.532515 539.467485,518.5 571.5,518.5 C591.36713,518.5 609.516929,508.433963 620.151783,492.087954 Z M547.174121,407.832308 L546.857419,407.978832 L546.610651,407.732104 L310.987133,172.147699 L314.968183,157.292683 L638.716159,157.292683 L572.997416,402.517654 L572.606356,402.510339 C572.237997,402.503449 571.869201,402.5 571.5,402.5 C562.9859,402.5 554.732396,404.335442 547.174121,407.832308 Z M607.847884,415.298524 L670.378012,181.971648 L838.399133,440.658537 L626.018669,440.658536 L625.897712,440.332406 C622.294238,430.616536 616.126775,422.040515 608.098914,415.502953 L607.847884,415.298524 Z" id="Combined-Shape" fill="#000000"></path>
                <path d="M310.411973,69 L200.511211,69.0005248 C165.112002,69.0005248 149,86.2873067 149,122.984432 C149,147.449183 171.899968,161.077963 217.699903,163.870774" id="Path-2" stroke-width="38" stroke-linecap="round"></path>
            </g>
        </g>
    </g>
</svg>