<?xml version="1.0" encoding="UTF-8"?>
<svg width="1240px" height="1240px" viewBox="0 0 1240 1240" version="1.1" xmlns="http://www.w3.org/2000/svg" xmlns:xlink="http://www.w3.org/1999/xlink">
    <!-- Generator: Sketch 52.5 (67469) - http://www.bohemiancoding.com/sketch -->
    <title>Artboard</title>
    <desc>Created with Sketch.</desc>
    <g id="Artboard" stroke="none" stroke-width="1" fill="none" fill-rule="evenodd">
        <path d="M620,271 C812.788942,271 969,427.211058 969,620 C969,812.788942 812.788942,969 620,969 C427.211058,969 271,812.788942 271,620 C271,427.211058 427.211058,271 620,271 Z M598.8,682.25 L641.15,682.25 L649.95,494.7 L652.15,432 L588.35,432 L590,494.7 L598.8,682.25 Z M620.25,807.1 C631.983392,807.1 641.699961,803.066707 649.4,795 C657.100038,786.933293 660.95,776.666729 660.95,764.2 C660.95,751.733271 657.100038,741.466707 649.4,733.4 C641.699961,725.333293 631.983392,721.3 620.25,721.3 C608.516608,721.3 598.708373,725.333293 590.825,733.4 C582.941627,741.466707 579,751.733271 579,764.2 C579,776.666729 582.941627,786.933293 590.825,795 C598.708373,803.066707 608.516608,807.1 620.25,807.1 Z" id="Combined-Shape" fill="#5f6368"></path>
    </g>
</svg>
