<?xml version="1.0" encoding="UTF-8"?>
<svg width="1240px" height="1240px" viewBox="0 0 1240 1240" version="1.1" xmlns="http://www.w3.org/2000/svg" xmlns:xlink="http://www.w3.org/1999/xlink">
    <!-- Generator: Sketch 52.5 (67469) - http://www.bohemiancoding.com/sketch -->
    <title>Artboard</title>
    <desc>Created with Sketch.</desc>
    <g id="Artboard" stroke="none" stroke-width="1" fill="none" fill-rule="evenodd">
        <path d="M620,220 C840.961538,220 1020,399.038462 1020,620 C1020,840.961538 840.961538,1020 620,1020 C399.038462,1020 220,840.961538 220,620 C220,399.038462 399.038462,220 620,220 Z M595.702006,691.346705 L644.240688,691.346705 L654.326648,476.389685 L656.848138,404.527221 L583.724928,404.527221 L585.616046,476.389685 L595.702006,691.346705 Z M620.286533,834.441261 C633.734547,834.441261 644.871016,829.818575 653.696275,820.573066 C662.521534,811.327556 666.934097,799.560721 666.934097,785.272206 C666.934097,770.983692 662.521534,759.216856 653.696275,749.971347 C644.871016,740.725837 633.734547,736.103152 620.286533,736.103152 C606.838519,736.103152 595.596989,740.725837 586.561605,749.971347 C577.52622,759.216856 573.008596,770.983692 573.008596,785.272206 C573.008596,799.560721 577.52622,811.327556 586.561605,820.573066 C595.596989,829.818575 606.838519,834.441261 620.286533,834.441261 Z" id="Combined-Shape" fill="#000000"></path>
    </g>
</svg>