<?xml version="1.0" encoding="UTF-8"?>
<svg width="1240px" height="1240px" viewBox="0 0 1240 1240" version="1.1" xmlns="http://www.w3.org/2000/svg" xmlns:xlink="http://www.w3.org/1999/xlink">
    <!-- Generator: Sketch 52.5 (67469) - http://www.bohemiancoding.com/sketch -->
    <title>Artboard</title>
    <desc>Created with Sketch.</desc>
    <g id="Artboard" stroke="none" stroke-width="1" fill="none" fill-rule="evenodd">
        <path d="M654.128213,908.355229 L883.128213,908.355229 L883.128213,567.355229 L907.601331,567.355229 L619.628213,336.233578 L331.655095,567.355229 L353.128213,567.355229 L353.128213,908.355229 L429.128213,908.355229 L429.128213,709.355229 C429.128213,678.979568 453.752551,654.355229 484.128213,654.355229 L599.128213,654.355229 C629.503874,654.355229 654.128213,678.979568 654.128213,709.355229 L654.128213,908.355229 Z M728.128213,654.355229 L809.128213,654.355229 C839.503874,654.355229 864.128213,678.979568 864.128213,709.355229 L864.128213,790.355229 C864.128213,820.73089 839.503874,845.355229 809.128213,845.355229 L728.128213,845.355229 C697.752551,845.355229 673.128213,820.73089 673.128213,790.355229 L673.128213,709.355229 C673.128213,678.979568 697.752551,654.355229 728.128213,654.355229 Z" id="Combined-Shape" stroke="#000000" stroke-width="70" fill="#000000"></path>
    </g>
</svg>