<?xml version="1.0" encoding="UTF-8"?>
<svg width="1240px" height="1240px" viewBox="0 0 1240 1240" version="1.1" xmlns="http://www.w3.org/2000/svg" xmlns:xlink="http://www.w3.org/1999/xlink">
    <!-- Generator: Sketch 52.5 (67469) - http://www.bohemiancoding.com/sketch -->
    <title>Artboard</title>
    <desc>Created with Sketch.</desc>
    <g id="Artboard" stroke="none" stroke-width="1" fill="none" fill-rule="evenodd">
        <path d="M620,271 C812.788942,271 969,427.211058 969,620 C969,812.788942 812.788942,969 620,969 C427.211058,969 271,812.788942 271,620 C271,427.211058 427.211058,271 620,271 Z M585.35,685.85 L640.9,685.85 C639.433326,674.116608 640.441649,663.483381 643.925,653.95 C647.408351,644.416619 651.991638,635.433375 657.675,627 C663.358362,618.566624 669.774964,610.500038 676.925,602.8 C684.075036,595.099961 690.766636,587.033375 697,578.6 C703.233364,570.166624 708.458312,561.275047 712.675,551.925 C716.891688,542.574953 719,532.033392 719,520.3 C719,505.266591 716.525025,492.066723 711.575,480.7 C706.624975,469.333276 699.84171,459.800038 691.225,452.1 C682.60829,444.399961 672.250061,438.625019 660.15,434.775 C648.049939,430.924981 634.850072,429 620.55,429 C599.649895,429 580.858417,433.491622 564.175,442.475 C547.491583,451.458378 533.100061,462.916597 521,476.85 L556.2,509.3 C564.266707,500.499956 572.883288,493.533359 582.05,488.4 C591.216712,483.266641 601.483276,480.7 612.85,480.7 C626.783403,480.7 637.691627,484.733293 645.575,492.8 C653.458373,500.866707 657.4,511.499934 657.4,524.7 C657.4,533.133375 655.383353,541.01663 651.35,548.35 C647.316647,555.68337 642.27503,563.108296 636.225,570.625 C630.17497,578.141704 623.758367,585.841627 616.975,593.725 C610.191633,601.608373 604.141693,610.133287 598.825,619.3 C593.508307,628.466712 589.475014,638.549945 586.725,649.55 C583.974986,660.550055 583.516658,672.649934 585.35,685.85 Z M613.4,810.7 C625.133392,810.7 634.941627,806.666707 642.825,798.6 C650.708373,790.533293 654.65,780.266729 654.65,767.8 C654.65,755.333271 650.708373,745.066707 642.825,737 C634.941627,728.933293 625.133392,724.9 613.4,724.9 C601.666608,724.9 591.950039,728.933293 584.25,737 C576.549961,745.066707 572.7,755.333271 572.7,767.8 C572.7,780.266729 576.549961,790.533293 584.25,798.6 C591.950039,806.666707 601.666608,810.7 613.4,810.7 Z" id="Combined-Shape" fill="#006eff"></path>
    </g>
</svg>
