<?xml version="1.0" encoding="UTF-8"?>
<svg width="1240px" height="1240px" viewBox="0 0 1240 1240" version="1.1" xmlns="http://www.w3.org/2000/svg" xmlns:xlink="http://www.w3.org/1999/xlink">
    <!-- Generator: Sketch 52.5 (67469) - http://www.bohemiancoding.com/sketch -->
    <title>Artboard</title>
    <desc>Created with Sketch.</desc>
    <g id="Artboard" stroke="none" stroke-width="1" fill="none" fill-rule="evenodd">
        <path d="M620,220 C840.961538,220 1020,399.038462 1020,620 C1020,840.961538 840.961538,1020 620,1020 C399.038462,1020 220,840.961538 220,620 C220,399.038462 399.038462,220 620,220 Z M580.286533,695.472779 L643.954155,695.472779 C642.273153,682.024766 643.428824,669.837686 647.421203,658.911175 C651.413583,647.984664 656.666634,637.688683 663.180516,628.022923 C669.694397,618.357163 677.04867,609.111792 685.243553,600.286533 C693.438436,591.461274 701.107892,582.215903 708.252149,572.550143 C715.396406,562.884383 721.384885,552.693463 726.217765,541.977077 C731.050645,531.260691 733.467049,519.178673 733.467049,505.730659 C733.467049,488.500391 730.630401,473.371603 724.95702,460.34384 C719.283639,447.316076 711.509123,436.389729 701.633238,427.56447 C691.757353,418.739211 679.885456,412.120366 666.017192,407.707736 C652.148928,403.295107 637.020139,401.088825 620.630372,401.088825 C596.676098,401.088825 575.138587,406.236816 556.017192,416.532951 C536.895797,426.829087 520.401215,439.961716 506.532951,455.931232 L546.876791,493.123209 C556.1223,483.037199 565.998037,475.05256 576.504298,469.169054 C587.010559,463.285548 598.777394,460.34384 611.805158,460.34384 C627.774674,460.34384 640.276937,464.966525 649.312321,474.212034 C658.347705,483.457544 662.86533,495.644623 662.86533,510.773639 C662.86533,520.439399 660.553987,529.474648 655.931232,537.879656 C651.308477,546.284665 645.530121,554.794608 638.595989,563.409742 C631.661856,572.024876 624.307584,580.850003 616.532951,589.885387 C608.758318,598.920771 601.82429,608.691447 595.730659,619.197708 C589.637028,629.703968 585.014342,641.260682 581.862464,653.868195 C578.710586,666.475708 578.185281,680.343764 580.286533,695.472779 Z M612.43553,838.567335 C625.883544,838.567335 637.125074,833.94465 646.160458,824.69914 C655.195843,815.453631 659.713467,803.686795 659.713467,789.398281 C659.713467,775.109766 655.195843,763.342931 646.160458,754.097421 C637.125074,744.851912 625.883544,740.229226 612.43553,740.229226 C598.987516,740.229226 587.851047,744.851912 579.025788,754.097421 C570.200529,763.342931 565.787966,775.109766 565.787966,789.398281 C565.787966,803.686795 570.200529,815.453631 579.025788,824.69914 C587.851047,833.94465 598.987516,838.567335 612.43553,838.567335 Z" id="Combined-Shape" fill="#5f636866"></path>
    </g>
</svg>
