<?xml version="1.0" encoding="UTF-8"?>
<svg width="1240px" height="1240px" viewBox="0 0 1240 1240" version="1.1" xmlns="http://www.w3.org/2000/svg" xmlns:xlink="http://www.w3.org/1999/xlink">
    <!-- Generator: Sketch 52.5 (67469) - http://www.bohemiancoding.com/sketch -->
    <title>Artboard</title>
    <desc>Created with Sketch.</desc>
    <g id="Artboard" stroke="none" stroke-width="1" fill="none" fill-rule="evenodd">
        <path d="M640.80009,589.550236 L640.80009,614.358654 L654.272817,614.358654 C672.774356,614.358654 687.772817,629.357114 687.772817,647.858654 L687.772817,663.966854 C687.772817,682.468393 672.774356,697.466854 654.272817,697.466854 L640.80009,697.466854 L640.80009,722.275272 L650.547363,722.275272 C669.048902,722.275272 684.047363,737.273733 684.047363,755.775272 L684.047363,771.883472 C684.047363,790.385011 669.048902,805.383472 650.547363,805.383472 L640.80009,805.383472 L640.80009,830.19189 L779.696454,830.19189 C798.197993,830.19189 813.196454,845.190351 813.196454,863.69189 L813.196454,879.80009 C813.196454,898.301629 798.197993,913.30009 779.696454,913.30009 L445.589181,913.30009 C443.611661,913.30009 441.674161,913.128745 439.790717,912.80009 L526.008703,912.80009 C523.72524,913.131336 521.351507,913.30009 518.885545,913.30009 C491.032593,913.30009 460.232096,913.30009 420.781908,913.30009 C314.477135,913.30009 228.30009,803.617408 228.30009,668.316963 C228.30009,549.608418 294.637286,450.619864 382.703283,428.127076 C383.462004,427.83399 384.232671,427.568048 385.013914,427.330094 C419.720518,416.759037 454.427123,406.187979 489.133728,395.616922 C518.793401,386.583076 544.754538,392.345778 569.30009,421.626265 C577.325498,431.199806 591.841737,459.471729 612.848806,506.442035 L877.80009,506.442035 C896.301629,506.442035 911.30009,521.440496 911.30009,539.942035 L911.30009,556.050236 C911.30009,574.551775 896.301629,589.550236 877.80009,589.550236 L640.80009,589.550236 Z M489.96847,489.996621 C492.908453,495.248754 495.81925,500.739483 498.692487,506.442035 L518.155904,506.442035 C506.953366,494.859173 497.557557,489.377371 489.96847,489.996621 Z" id="Combined-Shape" fill="#000000" transform="translate(569.800090, 652.500000) rotate(-90.000000) translate(-569.800090, -652.500000) "></path>
    </g>
</svg>
